<?xml version="1.0" standalone="no"?>
<!DOCTYPE svg PUBLIC "-//W3C//DTD SVG 20010904//EN"
 "http://www.w3.org/TR/2001/REC-SVG-20010904/DTD/svg10.dtd">
<svg version="1.0" xmlns="http://www.w3.org/2000/svg"
 width="612.000000pt" height="612.000000pt" viewBox="0 0 612.000000 612.000000"
 preserveAspectRatio="xMidYMid meet">

<g transform="translate(0.000000,612.000000) scale(0.100000,-0.100000)"
fill="#000000" stroke="none">
<path d="M3210 5437 c0 -8 6 -14 13 -14 8 0 14 6 14 14 0 7 -6 13 -14 13 -7 0
-13 -6 -13 -13z"/>
<path d="M2655 5320 c16 -5 41 -22 55 -37 24 -25 26 -32 18 -68 -10 -43 -65
-108 -85 -101 -6 3 -13 1 -15 -5 -6 -19 -68 3 -83 30 -21 38 -18 3 4 -44 20
-46 79 -102 116 -111 14 -3 25 -10 25 -15 0 -5 9 -1 21 9 11 9 29 24 39 33 11
9 24 28 29 42 6 15 17 27 25 27 20 0 29 30 11 36 -10 4 -15 21 -15 50 0 93
-49 154 -127 160 -42 3 -44 3 -18 -6z"/>
<path d="M2970 5296 c0 -8 5 -18 10 -21 13 -8 42 14 34 26 -9 15 -44 10 -44
-5z"/>
<path d="M2933 5273 c-19 -7 -16 -31 6 -43 30 -15 53 -12 49 6 -4 20 -39 43
-55 37z"/>
<path d="M3422 5239 c-41 -29 -71 -68 -55 -70 20 -3 -77 -21 -112 -21 -22 0
-44 -5 -48 -11 -5 -7 -6 -1 -3 15 4 15 1 30 -5 34 -7 4 -10 1 -7 -7 6 -17 -29
-49 -54 -49 -12 0 -18 -7 -18 -21 0 -11 -5 -17 -10 -14 -6 4 -8 10 -5 15 9 14
-21 19 -46 6 -19 -9 -23 -19 -21 -44 3 -26 0 -32 -17 -32 -10 0 -21 -5 -23
-10 -2 -6 -13 -12 -26 -15 -13 -2 -37 -11 -54 -20 -18 -9 -35 -12 -40 -7 -10
10 -72 -8 -88 -24 -7 -7 8 -10 42 -9 37 1 57 -3 66 -14 12 -14 13 -14 8 2 -3
9 -3 17 -1 17 10 0 43 -39 37 -44 -3 -3 0 -6 6 -6 22 0 42 -32 42 -68 l-1 -37
-13 30 c-14 30 -53 61 -64 51 -3 -4 3 -13 14 -20 16 -12 17 -17 6 -28 -11 -11
-13 -11 -10 1 2 7 -2 15 -9 18 -8 3 -10 -8 -6 -38 6 -38 4 -41 -9 -28 -9 7
-13 21 -11 29 4 12 3 13 -5 1 -7 -9 -5 -24 4 -47 18 -43 18 -44 -7 -44 -11 0
-17 -4 -14 -10 4 -6 1 -17 -5 -25 -10 -12 -9 -15 4 -15 9 0 16 -8 16 -20 0
-11 4 -20 10 -20 5 0 7 13 4 29 -5 25 -3 29 12 26 11 -2 24 -4 30 -4 12 -1 15
-24 8 -59 -4 -20 -9 -23 -36 -17 -21 5 -28 4 -24 -4 4 -6 14 -11 22 -11 27 0
14 -28 -16 -32 -31 -5 -56 12 -42 27 12 15 -52 -32 -75 -55 -25 -23 -29 -35
-13 -45 6 -3 10 -13 10 -22 0 -14 -3 -13 -22 3 -11 10 -5 -3 16 -29 35 -47 39
-74 10 -63 -10 4 -14 -4 -14 -32 0 -42 -22 -83 -34 -64 -4 7 -7 31 -6 54 0 24
1 60 1 81 -1 26 3 36 11 31 7 -4 8 -3 4 5 -13 20 -26 1 -26 -35 0 -44 -20 -35
-21 9 -1 18 -3 24 -6 14 -5 -18 -5 -18 -25 0 -16 14 -22 15 -25 5 -4 -10 -9
-8 -19 5 -13 17 -13 17 -14 0 0 -10 7 -20 15 -24 9 -3 23 -19 31 -35 l15 -29
-33 17 -33 17 18 -21 c10 -11 29 -23 41 -26 21 -5 49 -46 51 -73 0 -6 4 -15 8
-19 14 -15 7 -34 -14 -34 -11 0 -17 4 -14 11 4 5 -3 19 -16 30 -12 10 -17 19
-11 19 6 0 14 -5 17 -10 4 -6 11 -8 16 -4 13 8 -21 33 -37 27 -7 -2 -19 6 -28
19 -13 18 -16 19 -16 5 0 -19 -13 -22 -41 -7 -13 8 -19 7 -19 0 0 -6 7 -13 15
-16 18 -7 20 -40 3 -51 -25 -15 -51 -14 -44 2 3 8 1 15 -4 15 -6 0 -10 -5 -10
-11 0 -6 -9 -9 -20 -6 -11 3 -18 1 -14 -4 3 -5 0 -9 -6 -9 -6 0 -4 -8 6 -17
17 -17 17 -18 -2 -21 -30 -6 -41 -22 -16 -22 31 0 65 -34 70 -68 3 -26 3 -26
-11 -7 -14 18 -15 15 -11 -33 2 -29 -1 -52 -6 -52 -6 0 -10 6 -10 13 0 9 -2 9
-8 0 -4 -7 -13 -9 -21 -4 -14 9 -12 60 5 111 7 23 6 24 -8 9 -9 -9 -19 -37
-23 -62 l-7 -47 -40 51 c-52 64 -61 57 -14 -12 36 -52 42 -80 9 -42 -10 10
-25 22 -35 26 -19 7 -32 57 -23 88 5 16 13 20 32 16 19 -3 26 1 34 20 5 13 13
21 19 18 5 -3 10 3 10 14 0 12 -6 21 -13 21 -40 0 -73 31 -68 63 1 4 -8 3 -20
-4 -14 -7 -19 -7 -15 0 4 6 -1 23 -11 37 l-17 27 -8 -38 c-7 -32 -5 -40 13
-52 14 -11 20 -24 18 -47 -2 -30 7 -99 18 -141 4 -17 0 -15 -26 9 -17 16 -34
38 -37 49 -5 15 -8 17 -14 6 -6 -9 -11 -4 -16 17 -3 16 -17 39 -30 52 -13 13
-24 30 -24 38 0 8 -4 12 -10 9 -7 -4 -7 3 0 20 15 40 13 75 -6 75 -8 0 -12 5
-9 10 3 6 -1 10 -10 10 -11 0 -15 5 -12 14 7 17 -11 36 -35 36 -10 0 -21 7
-24 15 -6 13 -8 14 -18 1 -6 -7 -23 -16 -38 -20 -36 -8 -72 25 -65 60 4 21 0
24 -24 24 -39 0 -66 41 -51 75 17 36 61 44 84 15 10 -12 18 -33 18 -46 0 -21
2 -23 19 -13 15 10 23 8 44 -7 15 -10 27 -27 27 -36 0 -30 39 -22 46 10 8 31
33 74 50 84 7 5 10 17 7 28 -4 13 1 26 12 34 13 9 15 15 7 20 -7 4 -13 22 -14
39 -1 26 -2 24 -7 -12 -4 -28 -11 -45 -21 -47 -8 -1 -23 -5 -32 -9 -17 -7 -37
9 -73 58 -10 14 -33 32 -50 39 -16 6 -34 18 -38 25 -4 7 -15 13 -23 13 -8 0
-12 -4 -9 -10 3 -5 2 -10 -4 -10 -5 0 -13 5 -17 12 -5 7 -10 4 -16 -11 -7 -19
-11 -21 -23 -11 -12 10 -15 10 -15 -2 0 -19 -42 -38 -69 -31 -24 6 -38 -17
-25 -44 10 -22 13 -193 3 -193 -4 0 -19 7 -35 15 -31 16 -74 10 -87 -12 -6
-10 -14 -7 -32 15 -20 24 -30 28 -57 24 -38 -6 -57 -26 -58 -63 0 -48 49 -73
109 -54 20 7 23 5 18 -8 -3 -9 -3 -16 1 -14 13 4 58 -35 45 -40 -7 -2 -9 -12
-6 -20 5 -12 2 -15 -10 -10 -9 3 -19 2 -22 -3 -4 -6 5 -10 19 -10 20 0 29 -8
41 -36 17 -41 19 -58 7 -50 -12 7 -44 -33 -36 -46 5 -8 1 -9 -11 -4 -15 5 -16
4 -5 -9 10 -12 10 -15 -2 -15 -7 0 -22 10 -33 22 -21 26 -32 10 -15 -21 13
-25 3 -27 -22 -4 -11 9 -18 11 -18 5 0 -7 4 -12 10 -12 5 0 7 -7 4 -15 -7 -16
0 -18 60 -15 27 1 36 -2 31 -10 -4 -6 3 -22 16 -36 20 -22 21 -24 4 -24 -10 0
-16 -3 -12 -6 3 -4 14 -3 24 1 10 5 22 7 27 6 5 -1 6 6 2 15 -5 12 -2 15 10
10 9 -4 22 -1 30 4 10 9 11 6 5 -17 -6 -20 -14 -28 -29 -27 -12 0 -22 -3 -22
-8 0 -4 11 -8 25 -8 14 0 25 4 25 9 0 16 32 22 48 9 13 -10 14 -10 8 0 -4 7
-1 15 8 18 9 3 16 15 16 25 0 10 6 18 13 17 6 -2 12 6 12 16 0 28 23 31 27 4
2 -16 13 -26 34 -32 20 -6 35 -20 44 -39 12 -28 11 -32 -11 -49 -22 -19 -23
-19 -30 -2 -5 17 -7 17 -17 -3 -9 -16 -9 -24 -1 -29 16 -10 -9 -24 -43 -24
-18 0 -28 -5 -28 -15 0 -8 7 -15 15 -15 11 0 14 -7 11 -23 -3 -20 -1 -23 19
-19 15 2 25 12 27 26 2 14 11 22 28 23 14 1 18 -1 8 -3 -9 -3 -19 -12 -22 -20
-3 -8 -2 -13 2 -10 4 3 13 -4 19 -14 11 -16 9 -18 -18 -13 -22 3 -35 -1 -47
-15 -9 -10 -24 -21 -32 -25 -9 -3 -10 -6 -2 -6 24 -2 13 -37 -12 -39 -20 -1
-26 4 -31 27 -6 30 -45 47 -63 29 -5 -5 -25 -3 -48 6 -21 9 -51 14 -67 12 -36
-4 -77 -40 -77 -68 0 -45 -13 -50 -65 -28 -53 23 -86 20 -65 -5 6 -8 39 -20
71 -26 33 -6 62 -16 65 -20 3 -5 15 -9 27 -9 21 -1 21 -1 4 -15 -11 -7 -25
-11 -33 -8 -9 3 -14 -1 -14 -11 0 -14 -3 -14 -22 4 -28 25 -50 25 -73 0 -15
-16 -17 -26 -9 -47 12 -35 32 -40 43 -11 8 20 10 21 16 6 4 -9 3 -23 -1 -30
-6 -10 -4 -10 9 1 15 12 17 11 17 -3 0 -18 15 -22 25 -6 3 5 12 7 20 4 8 -4
12 -10 9 -15 -3 -5 1 -16 10 -24 13 -14 17 -13 32 7 16 22 15 16 -2 -27 -5
-11 1 -15 19 -15 14 0 29 -4 32 -10 3 -5 -3 -10 -14 -10 -12 0 -21 -4 -21 -10
0 -5 8 -10 18 -10 12 0 14 -2 4 -8 -16 -11 -5 -42 15 -42 8 0 17 9 20 21 4 15
8 17 14 8 4 -8 11 -10 15 -6 4 3 2 13 -5 21 -16 19 -10 38 14 51 14 7 19 19
17 37 -3 23 1 27 25 30 20 2 29 9 31 25 2 13 8 20 16 17 8 -3 23 7 35 22 11
15 21 21 21 14 0 -8 8 -10 21 -7 11 3 22 0 25 -7 2 -6 19 -13 37 -14 18 -2 48
-7 67 -11 l35 -9 -38 -1 c-21 -1 -36 -5 -32 -10 3 -6 27 -7 53 -4 39 4 50 2
66 -16 17 -19 17 -21 2 -27 -9 -3 -32 -4 -51 -2 -19 2 -32 2 -30 -1 3 -2 -1
-11 -8 -19 -10 -13 -9 -14 2 -8 7 5 35 10 61 11 46 3 48 2 54 -27 8 -38 8 -88
0 -88 -11 0 -49 23 -74 44 l-25 21 25 -29 25 -29 -27 5 c-15 3 -25 1 -22 -3 3
-5 13 -9 23 -9 32 0 92 -30 85 -42 -4 -7 -3 -8 5 -4 20 13 97 -34 119 -73 12
-20 30 -45 42 -56 32 -29 25 -38 -22 -31 -24 4 -50 7 -58 7 -8 0 -39 5 -68 11
-39 9 -51 15 -47 26 4 11 -1 13 -18 10 -20 -4 -23 -1 -19 18 2 12 -2 25 -8 29
-9 5 -10 2 -6 -13 4 -11 2 -23 -4 -27 -5 -3 -10 1 -10 9 0 9 -4 16 -10 16 -14
0 -13 -13 2 -28 9 -9 6 -12 -15 -12 -20 0 -27 5 -27 19 0 11 -4 23 -10 26 -12
8 -13 3 0 -29 6 -16 17 -26 29 -26 11 0 22 -4 25 -9 4 -5 -4 -7 -16 -4 -22 4
-22 4 -4 -11 24 -19 39 -11 30 16 -3 11 -2 18 2 16 5 -2 27 -12 49 -21 77 -34
83 -38 53 -34 -16 3 -28 1 -28 -3 0 -9 28 -23 49 -24 8 -1 23 -13 34 -28 20
-26 17 -48 -7 -48 -15 0 -96 75 -96 89 0 13 -32 23 -39 12 -14 -22 -56 1 -74
40 -18 38 -39 50 -52 29 -7 -11 14 -55 22 -47 2 3 0 15 -7 26 -6 12 -8 21 -6
21 3 0 13 -14 22 -31 16 -31 15 -32 -5 -26 -25 6 -28 2 -32 -38 -5 -39 -14
-44 -79 -47 -43 -1 -47 -2 -17 -5 39 -4 43 -9 27 -33 -6 -9 -10 -10 -10 -3 0
6 -9 11 -20 10 -11 -1 -20 -7 -20 -14 0 -10 -6 -10 -25 3 -13 8 -29 13 -35 9
-5 -3 -10 1 -10 9 0 9 -9 16 -20 16 -14 0 -18 5 -13 16 4 12 1 15 -12 13 -10
-2 -20 -10 -23 -18 -3 -9 0 -11 8 -6 9 5 11 4 6 -3 -10 -16 -14 -15 -27 9 -8
16 -8 20 0 14 6 -3 11 -3 10 2 -1 4 -1 15 0 23 1 13 2 13 11 0 6 -9 10 -10 10
-3 0 14 -41 55 -49 48 -2 -3 3 -11 13 -18 17 -12 17 -14 0 -28 -16 -13 -17
-12 -11 4 4 11 3 16 -3 12 -6 -4 -17 1 -26 10 -9 9 -18 14 -21 12 -2 -3 10
-18 27 -35 16 -17 30 -36 30 -43 0 -7 -16 2 -35 21 -19 18 -38 31 -42 27 -3
-4 -3 -7 2 -7 4 0 2 -7 -5 -15 -9 -10 -9 -15 -1 -15 6 0 11 5 11 11 0 5 5 7
12 3 7 -5 5 -11 -7 -21 -18 -12 -10 -19 18 -14 5 1 5 -4 1 -10 -4 -8 -3 -9 5
-5 6 4 8 12 5 18 -4 6 -1 9 7 6 8 -3 16 -13 18 -23 2 -13 -1 -16 -13 -12 -9 4
-16 2 -16 -4 0 -6 -15 4 -33 22 -23 23 -32 40 -29 55 3 18 -2 23 -34 28 -26 5
-40 4 -46 -6 -11 -17 -1 -70 15 -80 11 -7 20 -48 10 -48 -2 0 -18 7 -35 16
-22 12 -33 13 -38 4 -4 -6 -6 6 -5 26 2 21 8 40 14 42 6 2 11 8 11 14 0 6 -9
3 -19 -6 -11 -10 -25 -16 -32 -14 -7 2 -22 -6 -35 -19 -13 -12 -29 -20 -37
-17 -8 3 -17 -2 -20 -10 -4 -9 -11 -16 -17 -16 -14 0 -13 27 3 33 6 3 2 6 -10
6 -12 1 -25 -3 -28 -9 -3 -5 -2 -10 3 -10 10 0 10 -21 -2 -62 -5 -16 -12 -28
-18 -28 -5 0 -6 -9 -3 -20 4 -11 2 -20 -4 -20 -6 0 -2 -9 8 -19 11 -11 28 -18
38 -17 10 2 12 1 5 -1 -16 -6 -15 -23 2 -23 18 0 47 45 41 63 -7 18 39 39 70
31 19 -5 23 -11 20 -32 -1 -15 -3 -60 -4 -99 -1 -64 -3 -73 -19 -73 -11 0 -32
-11 -48 -25 -16 -14 -25 -25 -20 -25 5 0 2 -8 -6 -17 -9 -10 -19 -28 -22 -39
-4 -14 -18 -24 -39 -29 -28 -6 -29 -8 -12 -14 11 -5 26 -6 33 -4 16 7 15 1 -4
-41 -9 -19 -14 -41 -11 -50 9 -23 65 -55 88 -49 35 9 22 -47 -13 -60 -21 -8
-23 -30 -5 -46 11 -8 17 -3 30 25 9 19 17 43 17 54 0 36 20 32 21 -4 2 -52 3
-56 14 -55 6 0 9 7 7 15 -2 8 3 13 9 12 7 -2 15 11 19 28 13 57 40 76 40 28 0
-19 4 -25 15 -20 9 3 18 -1 21 -9 10 -25 24 -17 24 15 0 17 -5 30 -12 30 -6 0
-8 3 -5 7 9 8 58 -37 52 -48 -13 -20 56 -128 77 -121 6 1 12 -6 15 -17 6 -22
36 -38 41 -22 5 16 22 13 22 -4 0 -20 10 -19 25 2 11 15 15 15 29 4 9 -8 15
-20 12 -28 -3 -7 -3 -13 0 -13 2 0 9 11 14 25 14 36 27 31 22 -8 -4 -27 -2
-30 9 -19 8 7 14 20 14 30 0 11 10 18 29 20 22 3 27 0 23 -11 -6 -15 24 -31
51 -28 6 1 12 -8 12 -20 0 -18 -2 -20 -15 -9 -11 9 -19 10 -27 2 -13 -13 0
-35 17 -28 25 9 25 -24 0 -40 -14 -9 -25 -21 -25 -26 0 -6 7 -5 15 2 18 15 23
12 29 -21 2 -13 5 -26 6 -29 0 -3 6 2 13 12 17 22 67 19 67 -4 0 -10 -6 -18
-12 -18 -10 0 -10 -2 -1 -8 8 -5 14 -71 19 -205 4 -109 11 -200 15 -202 12 -8
22 14 12 28 -10 15 -11 402 0 413 12 12 26 -9 30 -46 2 -19 9 -36 16 -38 6 -2
9 -8 5 -13 -11 -18 14 -8 40 16 15 14 28 35 29 47 1 11 9 23 19 26 10 2 18 9
18 15 0 6 8 3 18 -6 15 -16 15 -19 2 -27 -12 -8 -9 -10 13 -10 21 0 27 -5 27
-22 0 -17 3 -19 9 -9 7 11 10 9 16 -8 3 -11 10 -21 15 -21 5 0 17 -15 26 -33
9 -17 28 -44 42 -59 l25 -27 -6 -246 c-3 -134 -2 -247 3 -250 4 -3 11 109 15
248 l7 253 33 21 c18 12 44 44 58 73 14 28 28 46 32 40 14 -23 63 -10 111 30
26 21 51 37 55 35 4 -3 16 11 28 30 11 19 25 35 31 35 5 0 10 6 10 13 0 7 16
28 35 47 19 19 35 41 35 49 0 9 -14 36 -30 61 -16 25 -30 39 -30 33 0 -7 -4
-13 -10 -13 -13 0 -13 47 0 55 7 4 7 12 0 25 -15 27 -12 34 7 19 15 -12 16
-12 10 4 -4 10 -2 17 6 17 8 0 8 3 -2 9 -8 5 -9 11 -3 15 6 3 14 1 17 -5 4 -6
22 -8 44 -4 28 5 41 2 51 -10 11 -14 10 -18 -8 -31 -14 -10 -22 -26 -22 -44 0
-24 5 -31 27 -36 19 -5 30 -2 40 11 12 18 13 17 13 -7 0 -14 3 -46 6 -72 6
-42 5 -46 -15 -46 -19 0 -21 -6 -21 -49 0 -40 5 -56 26 -78 l26 -28 -6 -510
c-3 -280 -11 -591 -18 -690 -12 -170 -15 -183 -43 -233 l-30 -54 -64 -3 c-34
-2 -68 -8 -74 -14 -6 -6 -20 -11 -31 -12 -21 0 -21 0 -1 -9 34 -14 270 -33
327 -26 29 4 88 9 132 12 43 2 86 9 95 14 14 8 13 9 -6 10 -12 0 -23 5 -25 10
-2 6 -26 12 -53 13 -48 3 -51 5 -73 49 l-23 46 -5 600 c-3 420 -1 603 7 607 6
4 16 -1 24 -11 13 -18 14 -18 21 0 4 10 2 21 -5 26 -7 4 -12 13 -11 21 5 32
-1 47 -20 52 -19 5 -20 14 -20 157 0 161 10 211 36 176 7 -10 10 -24 7 -32 -3
-8 2 -17 11 -20 9 -3 16 -12 16 -20 0 -8 5 -14 10 -14 11 0 -4 -31 -29 -63
-13 -16 -13 -17 2 -11 11 4 17 1 17 -8 0 -8 7 -23 15 -34 15 -18 15 -18 9 8
-3 15 -3 32 1 38 9 15 26 -10 49 -72 17 -47 44 -70 31 -27 l-7 22 28 -20 c48
-33 53 -34 47 -15 -5 21 22 48 59 57 23 6 29 3 37 -16 l10 -24 0 23 c1 34 18
27 47 -20 32 -51 48 -62 92 -64 37 -1 51 -16 53 -54 0 -14 3 -19 6 -13 3 10
10 10 25 2 15 -8 30 -5 69 13 27 13 49 29 49 36 0 6 4 12 10 12 5 0 7 7 4 15
-4 10 0 15 12 15 16 0 17 2 4 10 -11 7 -11 10 -2 10 7 0 10 5 7 10 -9 15 4 12
21 -4 8 -8 14 -21 14 -28 0 -19 21 -38 41 -38 24 0 49 27 42 45 -3 9 1 22 8
31 12 14 10 19 -14 38 -17 14 -27 31 -26 46 0 14 3 19 6 13 2 -7 11 -13 19
-13 8 0 13 -3 13 -7 -3 -20 2 -33 14 -33 9 0 13 -14 13 -44 -1 -36 3 -46 18
-50 13 -3 17 -11 13 -25 -3 -13 0 -21 7 -21 7 0 23 -14 35 -31 15 -20 26 -27
30 -20 4 6 22 9 39 7 18 -2 32 1 32 5 0 5 7 9 15 9 8 0 24 9 36 21 11 11 27
18 35 15 8 -3 14 -1 14 4 0 6 7 10 16 10 24 0 62 45 66 77 2 21 -5 35 -26 55
-25 23 -27 29 -16 43 11 13 10 18 -2 28 -24 18 -27 40 -10 60 10 11 11 17 4
17 -7 0 -12 -4 -12 -10 0 -5 -7 -10 -15 -10 -9 0 -15 9 -15 23 0 16 -3 18 -9
8 -6 -10 -13 -10 -28 -2 -11 5 -23 7 -27 4 -3 -3 -6 -1 -6 6 0 7 -4 9 -10 6
-5 -3 -10 -1 -10 4 0 9 19 15 41 13 3 -1 4 10 1 24 -4 23 -3 24 21 15 14 -6
35 -8 47 -6 12 2 23 -2 27 -10 3 -8 13 -15 22 -15 9 0 22 -5 28 -11 14 -14 43
-5 43 13 0 8 -22 18 -50 25 -52 12 -98 43 -66 43 9 0 37 15 63 33 27 19 77 43
113 54 49 16 65 26 65 40 0 13 -6 17 -25 14 -37 -5 -112 -45 -139 -75 -28 -29
-39 -32 -65 -13 -16 12 -17 16 -5 35 8 12 19 22 26 22 17 0 17 17 1 23 -10 3
-10 9 -1 25 8 13 9 23 3 27 -15 9 -12 42 5 49 20 7 19 36 -1 36 -13 0 -14 3
-4 15 7 8 16 12 21 9 5 -3 9 1 9 9 0 8 10 21 23 30 12 8 18 19 14 23 -5 5 -20
-4 -33 -21 -26 -33 -33 -23 -8 13 14 20 14 22 -1 22 -9 0 -13 -4 -10 -10 3 -5
1 -10 -4 -10 -18 0 -13 18 7 29 13 7 23 6 30 -1 7 -7 15 -8 19 -4 4 4 1 11 -7
16 -12 8 -10 10 9 10 20 0 21 2 11 15 -7 8 -8 15 -2 15 5 0 12 9 15 21 8 30
47 8 41 -23 -2 -13 2 -7 10 12 8 19 15 31 17 25 3 -15 6 -37 8 -62 1 -17 7
-23 26 -23 15 0 25 -6 25 -15 0 -8 6 -12 13 -10 29 11 96 12 101 1 3 -7 5 -6
5 2 1 7 6 10 13 6 8 -5 9 -2 5 9 -3 9 1 23 10 32 8 9 16 30 18 46 1 17 7 35
14 42 6 6 11 17 11 24 0 7 5 13 11 13 7 0 9 -10 5 -24 -4 -18 1 -33 19 -54 24
-29 35 -69 15 -57 -6 3 -17 -1 -26 -9 -8 -9 -21 -16 -27 -16 -29 -1 -107 -92
-106 -123 l0 -22 9 21 c8 20 11 21 57 9 80 -22 102 -33 121 -65 15 -23 21 -27
31 -17 7 7 6 -2 -4 -26 -18 -44 -12 -49 10 -7 19 37 19 107 0 140 -8 14 -17
30 -20 37 -4 6 3 21 14 32 22 22 26 33 14 45 -5 4 -9 23 -10 42 -2 19 -4 49
-5 67 -2 17 -7 38 -11 45 -5 7 -4 12 3 12 7 0 6 5 -2 14 -7 7 -18 12 -24 9
-21 -8 -37 51 -20 75 5 7 4 12 -3 12 -19 0 -12 32 9 37 16 4 18 8 9 19 -9 11
-7 14 10 14 11 0 28 11 37 25 14 22 14 27 1 54 -13 26 -13 31 1 45 12 12 14
22 6 43 -8 23 -16 29 -45 31 -32 3 -37 0 -43 -24 -5 -17 -1 -35 9 -50 14 -21
14 -24 0 -24 -8 0 -15 -5 -15 -11 0 -5 -4 -8 -9 -4 -6 3 -11 -15 -13 -41 -2
-27 -8 -49 -15 -52 -10 -3 -13 28 -14 130 -1 115 -4 181 -8 197 -1 3 -6 0 -13
-7 -9 -9 -16 -8 -31 6 -10 9 -22 16 -26 16 -3 -1 -16 2 -29 7 -30 12 -42 11
-42 -1 0 -5 -9 -10 -21 -10 -15 0 -19 -5 -15 -15 4 -12 0 -15 -22 -11 -15 2
-27 5 -27 6 0 2 -13 3 -30 4 -18 2 -36 -5 -46 -16 -10 -11 -23 -16 -33 -12
-12 4 -15 2 -11 -9 6 -15 -38 -57 -59 -57 -6 0 -4 5 4 10 10 6 11 10 3 10 -7
0 -13 6 -13 13 0 19 -33 47 -54 47 -15 0 -16 -8 -10 -75 5 -52 3 -75 -4 -75
-7 0 -12 30 -14 78 l-3 77 -18 -38 c-13 -27 -26 -39 -48 -44 -16 -3 -29 -12
-29 -19 0 -21 -38 -36 -73 -28 -40 8 -57 26 -57 58 0 29 -16 42 -34 27 -10 -8
-21 -3 -47 23 l-35 33 3 -65 c2 -36 9 -72 16 -81 6 -8 7 -12 2 -9 -6 4 -19 0
-30 -8 -16 -12 -17 -17 -7 -23 16 -10 18 -21 5 -30 -5 -3 -18 -24 -29 -46 -13
-27 -26 -40 -39 -40 -17 0 -21 -9 -26 -50 -5 -45 -6 -42 -7 28 -2 74 -3 77
-19 61 -16 -15 -17 -15 -24 2 -7 17 -8 17 -8 1 -1 -23 -57 -81 -70 -72 -6 3
-11 1 -11 -5 0 -7 -7 -10 -15 -6 -13 4 -15 -9 -15 -84 0 -82 8 -107 25 -80 9
14 52 12 120 -5 79 -21 93 -23 141 -24 34 -1 43 -5 53 -27 13 -29 4 -56 -11
-30 -5 9 -15 16 -23 16 -9 0 -12 6 -9 15 8 19 -26 21 -45 3 -10 -9 -12 -9 -7
-1 3 6 2 14 -4 18 -18 11 -23 -24 -5 -41 15 -15 17 -15 22 5 3 11 9 18 14 16
4 -3 5 -13 2 -21 -5 -13 -1 -15 15 -9 16 4 22 2 22 -8 0 -17 -27 -30 -42 -21
-6 4 -14 0 -19 -7 -9 -15 -25 -4 -31 21 -2 8 -9 21 -16 28 -10 11 -10 17 -1
28 10 12 8 13 -7 7 -10 -4 -25 -13 -33 -20 -11 -12 -20 -8 -56 21 -32 27 -42
31 -41 18 1 -16 -3 -18 -42 -21 -15 -1 -19 -10 -20 -41 -2 -38 0 -40 26 -40
17 0 38 -10 51 -24 20 -21 27 -23 52 -14 38 13 59 4 59 -24 -1 -20 -2 -21 -11
-5 -5 9 -15 17 -21 17 -7 0 -6 -5 2 -15 14 -17 3 -38 -17 -31 -8 3 -11 1 -8
-4 7 -12 -18 -40 -35 -40 -7 0 -10 -6 -7 -14 9 -24 -18 -39 -43 -26 -16 9 -20
18 -16 36 6 24 -7 33 -19 14 -9 -15 -27 0 -21 17 10 24 -5 36 -19 16 -11 -15
-15 -16 -30 -3 -10 8 -20 14 -22 13 -13 -11 -22 1 -17 22 7 29 -3 33 -21 9 -6
-10 -24 -18 -39 -20 l-28 -3 27 25 c14 13 35 24 45 24 33 0 177 -49 190 -65 7
-8 18 -15 24 -15 6 0 3 7 -6 14 -25 19 -22 23 15 20 19 -2 10 2 -22 11 -30 7
-57 19 -61 25 -4 6 -9 11 -11 10 -2 -1 -16 1 -31 5 -30 8 -38 25 -12 25 9 0
14 5 12 12 -3 8 -22 11 -54 10 l-49 -3 53 38 53 37 -3 109 -2 108 -33 -4 c-29
-4 -32 -3 -22 14 5 11 7 24 3 30 -3 6 -6 28 -6 50 1 42 -8 49 -29 23 -7 -9
-22 -14 -36 -11 -12 2 -20 0 -17 -4 3 -5 -1 -9 -8 -9 -10 0 -10 -2 1 -9 9 -6
3 -8 -19 -7 -40 2 -60 27 -44 54 6 9 20 17 30 17 10 0 28 10 39 23 19 21 22
21 49 7 30 -16 66 -20 66 -7 0 4 14 13 31 19 23 9 30 17 25 28 -5 15 18 50 34
50 3 0 25 15 48 34 32 25 48 32 67 27 19 -5 25 -2 25 10 0 11 6 15 20 11 14
-4 20 0 21 11 0 10 5 6 10 -10 13 -33 34 -27 37 10 1 15 10 33 20 41 16 13 16
13 0 8 -15 -5 -18 -1 -18 25 0 32 -25 59 -47 51 -9 -3 -13 -25 -13 -65 0 -43
-3 -59 -12 -55 -7 2 -14 19 -14 38 -4 93 -10 139 -16 139 -5 0 -8 -5 -8 -11 0
-5 -5 -7 -10 -4 -6 4 14 33 45 67 30 34 55 65 55 69 0 5 -20 -14 -45 -40 -45
-48 -128 -101 -140 -89 -21 21 94 168 131 168 6 0 11 6 11 14 0 10 -13 6 -43
-15 -23 -16 -45 -29 -48 -29 -2 0 0 15 5 32 5 18 9 46 8 63 0 23 -4 16 -18
-30 -10 -33 -26 -78 -35 -100 l-18 -40 -14 30 c-22 49 -16 77 31 155 39 63 41
69 15 40 l-31 -35 4 58 c2 32 0 53 -3 46 -6 -8 -10 -7 -16 4 -6 10 -9 -15 -9
-67 0 -71 -4 -90 -28 -134 -18 -33 -24 -53 -17 -57 7 -4 14 3 17 16 5 18 9 11
20 -31 8 -34 10 -57 4 -63 -5 -5 -7 -15 -4 -22 3 -8 -5 -15 -19 -17 -23 -4
-23 -4 4 -16 25 -10 44 -44 40 -69 -2 -8 4 -10 15 -7 15 5 16 4 3 -5 -13 -10
-13 -12 0 -21 13 -8 13 -10 -1 -10 -10 0 -20 11 -23 25 -4 15 -11 22 -20 19
-18 -7 -33 35 -17 46 7 4 1 11 -16 18 -23 10 -25 10 -12 0 18 -15 14 -39 -5
-32 -8 3 -16 -2 -19 -10 -7 -18 -27 -22 -27 -5 0 5 4 8 9 5 5 -4 7 3 4 14 -4
16 -2 19 13 14 20 -8 19 -6 -10 16 -11 8 -17 10 -13 3 4 -6 2 -15 -4 -19 -6
-3 -9 -19 -5 -35 6 -32 -4 -38 -25 -13 -7 9 -22 14 -36 11 -27 -5 -40 22 -23
53 7 13 7 20 0 20 -5 0 -10 -5 -10 -11 0 -5 -4 -7 -10 -4 -16 10 -12 21 13 34
20 11 20 11 -10 7 -25 -4 -31 -2 -27 9 4 8 10 12 15 9 5 -2 21 2 36 10 25 13
26 15 10 22 -15 5 -16 9 -5 15 19 13 28 11 28 -6 0 -8 6 -12 14 -9 8 3 24 0
36 -6 12 -6 24 -9 27 -6 3 3 -6 10 -20 15 -15 6 -35 19 -47 31 l-20 20 25 12
c14 6 25 15 25 19 0 5 15 15 33 22 17 8 38 21 46 30 18 22 9 21 -31 -3 l-33
-20 -12 48 -12 47 2 -52 c2 -50 0 -53 -27 -63 -55 -19 -58 -16 -52 53 l6 62
-17 -64 c-9 -35 -19 -59 -21 -53 -2 6 -9 9 -16 6 -7 -3 -19 2 -26 10 -7 9 -16
13 -21 10 -10 -6 -52 33 -62 59 -5 13 5 33 33 68 22 28 40 55 40 60 0 14 114
11 130 -3 12 -11 12 -10 1 5 -9 11 -27 17 -56 17 -49 0 -58 6 -44 31 7 14 21
19 49 19 42 0 78 13 122 42 21 15 39 18 80 14 l53 -6 -40 12 c-50 14 -51 14
-34 35 8 9 -2 5 -21 -9 -71 -54 -190 -90 -190 -57 0 17 111 129 128 129 24 0
88 48 118 89 l27 36 -39 -37 c-39 -38 -64 -48 -64 -27 0 5 -4 7 -10 4 -5 -3
-10 -1 -10 6 0 14 67 79 81 79 6 0 8 9 4 19 -3 11 -1 22 5 26 18 11 -1 27 -25
21 -17 -4 -25 -1 -28 11 -4 17 -5 17 -6 1 -1 -21 -21 -25 -21 -5 0 7 6 19 13
26 10 11 10 13 0 7 -22 -12 -34 3 -22 27 15 27 28 37 54 37 30 0 47 -15 48
-42 2 -23 4 -24 24 -11 25 16 36 40 26 55 -3 7 -1 8 6 4 7 -4 19 2 30 15 15
19 27 23 65 21 39 -1 46 1 44 16 -2 11 3 17 15 16 9 -1 17 5 17 13 0 10 6 12
19 8 11 -3 22 -1 26 5 3 5 -1 10 -10 10 -14 0 -16 9 -13 50 2 42 0 50 -14 50
-10 0 -18 7 -18 15 0 8 5 15 11 15 5 0 7 5 3 12 -5 7 -3 8 7 3 25 -16 51 -13
43 4 -3 9 -9 24 -11 34 -3 9 -9 17 -14 17 -5 0 -9 -8 -9 -17 0 -15 -2 -16 -10
-3 -8 13 -11 12 -25 -5 -14 -17 -16 -17 -11 -2 3 9 1 17 -4 17 -5 0 -8 14 -8
30 1 18 6 30 15 30 7 0 13 -5 13 -11 0 -6 6 -9 13 -6 6 2 11 9 10 15 -2 6 1
22 7 36 6 17 5 26 -3 30 -9 3 -9 5 0 5 7 1 17 11 24 22 8 16 8 20 0 14 -7 -4
-18 -2 -25 4 -19 16 -118 6 -132 -13 -14 -20 -34 -21 -34 -1 0 18 -21 20 -38
3 -11 -11 -12 7 -3 64 0 4 8 5 16 2 21 -8 20 25 -2 41 -15 11 -14 15 13 40
l29 28 -32 -6 c-18 -4 -33 -3 -33 1 0 15 -53 31 -82 25 -17 -3 -33 -1 -37 4
-3 6 -24 13 -46 16 -34 5 -47 1 -83 -24z m-382 -279 c0 -5 -4 -10 -10 -10 -5
0 -10 5 -10 10 0 6 5 10 10 10 6 0 10 -4 10 -10z m-10 -107 c0 -21 -3 -24 -9
-14 -5 8 -7 20 -4 28 8 21 13 15 13 -14z m670 -33 c0 -5 -4 -10 -10 -10 -5 0
-10 5 -10 10 0 6 5 10 10 10 6 0 10 -4 10 -10z m-220 -46 c0 -8 -4 -12 -10 -9
-5 3 -10 10 -10 16 0 5 5 9 10 9 6 0 10 -7 10 -16z m58 -13 c3 -8 -1 -12 -9
-9 -7 2 -15 10 -17 17 -3 8 1 12 9 9 7 -2 15 -10 17 -17z m52 15 c0 -11 -19
-15 -25 -6 -3 5 1 10 9 10 9 0 16 -2 16 -4z m281 -59 c-8 -8 -11 -7 -11 4 0
20 13 34 18 19 3 -7 -1 -17 -7 -23z m-491 13 c0 -5 -4 -10 -9 -10 -6 0 -13 5
-16 10 -3 6 1 10 9 10 9 0 16 -4 16 -10z m390 -10 c0 -5 -4 -10 -10 -10 -5 0
-10 5 -10 10 0 6 5 10 10 10 6 0 10 -4 10 -10z m-380 -20 c0 -5 -4 -10 -10
-10 -5 0 -10 5 -10 10 0 6 5 10 10 10 6 0 10 -4 10 -10z m380 -10 c0 -5 -5
-10 -11 -10 -5 0 -7 5 -4 10 3 6 8 10 11 10 2 0 4 -4 4 -10z m-40 -42 c0 -5
-4 -8 -10 -8 -5 0 -10 10 -10 23 0 18 2 19 10 7 5 -8 10 -18 10 -22z m80 22
c8 -5 12 -11 10 -14 -3 -2 -14 2 -24 10 -22 15 -10 19 14 4z m-240 -30 c0 -5
-7 -10 -15 -10 -8 0 -15 5 -15 10 0 6 7 10 15 10 8 0 15 -4 15 -10z m-590 -20
c0 -11 -4 -20 -9 -20 -14 0 -23 18 -16 30 10 17 25 11 25 -10z m700 10 c0 -5
-4 -10 -10 -10 -5 0 -10 5 -10 10 0 6 5 10 10 10 6 0 10 -4 10 -10z m-4 -68
c-9 -8 -26 10 -26 26 1 15 2 15 15 -2 8 -11 13 -21 11 -24z m-266 19 c0 -15
-12 -41 -19 -41 -3 0 -12 10 -20 21 -11 19 -11 21 3 16 9 -4 16 -2 16 3 0 6 5
10 10 10 6 0 10 -4 10 -9z m-270 -11 c0 -5 -9 -10 -20 -10 -11 0 -20 5 -20 10
0 6 9 10 20 10 11 0 20 -4 20 -10z m370 -21 c0 -6 -4 -7 -10 -4 -5 3 -10 11
-10 16 0 6 5 7 10 4 6 -3 10 -11 10 -16z m-240 7 c0 -3 -4 -8 -10 -11 -5 -3
-10 -1 -10 4 0 6 5 11 10 11 6 0 10 -2 10 -4z m-344 -63 c-22 -43 -48 -60 -78
-52 -21 5 -25 3 -23 -10 1 -9 8 -16 16 -16 7 0 15 -8 17 -17 5 -27 -14 -21
-37 11 -12 17 -18 36 -15 46 4 10 2 15 -6 13 -7 -2 -14 2 -17 8 -4 13 100 40
116 30 6 -4 11 -2 11 3 0 6 7 11 15 11 14 0 14 -3 1 -27z m154 7 c0 -5 -4 -10
-10 -10 -5 0 -10 5 -10 10 0 6 5 10 10 10 6 0 10 -4 10 -10z m190 -5 c7 -8 8
-15 2 -15 -5 0 -15 7 -22 15 -7 8 -8 15 -2 15 5 0 15 -7 22 -15z m210 -17 c0
-5 -4 -8 -10 -8 -5 0 -10 10 -10 23 0 18 2 19 10 7 5 -8 10 -18 10 -22z m-162
-15 c-4 -36 -34 -71 -48 -57 -6 6 -15 25 -20 44 l-10 33 20 -21 c11 -12 27
-19 35 -16 17 7 20 24 5 24 -5 0 -10 5 -10 10 0 6 7 10 16 10 11 0 15 -8 12
-27z m-86 -13 c6 -17 5 -21 -6 -17 -8 3 -20 -1 -27 -9 -10 -13 -14 -12 -30 2
-11 10 -19 25 -19 35 0 28 71 19 82 -11z m173 10 c-3 -5 -10 -10 -16 -10 -5 0
-9 5 -9 10 0 6 7 10 16 10 8 0 12 -4 9 -10z m198 -38 c-15 -10 -19 -10 -25 5
-11 29 -9 32 17 20 23 -11 24 -13 8 -25z m-924 -27 c0 -5 -9 1 -19 14 -11 13
-20 28 -20 35 0 6 9 0 20 -14 11 -14 20 -29 19 -35z m261 31 c0 -3 -4 -8 -10
-11 -5 -3 -10 -1 -10 4 0 6 5 11 10 11 6 0 10 -2 10 -4z m167 -49 c-5 -15 -39
-16 -44 -2 -2 6 8 12 23 13 17 1 24 -2 21 -11z m283 3 c0 -5 -4 -10 -10 -10
-5 0 -10 5 -10 10 0 6 5 10 10 10 6 0 10 -4 10 -10z m-688 -36 l7 -29 -19 25
c-22 29 -25 43 -8 38 7 -3 15 -18 20 -34z m138 -40 c17 -42 29 -78 26 -82 -10
-10 -56 17 -56 33 0 9 -5 13 -10 10 -13 -8 -60 -17 -60 -11 0 2 7 17 15 32 8
16 15 38 15 50 0 20 17 44 31 44 4 0 21 -34 39 -76z m663 36 c3 -12 -3 -30
-14 -43 l-18 -22 -1 43 c0 45 23 61 33 22z m-1367 -40 c0 -13 -7 -20 -18 -20
-18 0 -24 20 -11 33 13 14 29 7 29 -13z m1414 10 c0 -5 -7 -10 -16 -10 -8 0
-12 5 -9 10 3 6 10 10 16 10 5 0 9 -4 9 -10z m-104 -57 c-8 -15 -15 -22 -16
-15 0 17 20 55 27 49 2 -3 -2 -18 -11 -34z m-210 0 c3 -10 10 -26 16 -37 7
-14 6 -23 -7 -35 -16 -15 -17 -15 -13 4 2 11 -5 28 -14 37 -10 10 -15 24 -12
33 8 20 23 19 30 -2z m-606 -3 c-19 -13 -30 -13 -30 0 0 6 10 10 23 10 18 0
19 -2 7 -10z m773 -9 c-5 -3 -14 -17 -21 -31 -11 -25 -11 -25 -5 4 5 23 3 27
-8 21 -12 -7 -12 -6 -1 7 8 9 20 14 29 11 8 -3 11 -9 6 -12z m-458 -70 c-3
-12 -11 -21 -17 -21 -6 0 -8 -9 -5 -20 3 -11 1 -20 -5 -20 -6 0 -8 11 -6 25 3
14 1 28 -3 31 -5 3 -9 20 -9 39 l0 34 26 -24 c18 -17 24 -30 19 -44z m255 50
c0 -12 -20 -25 -27 -18 -7 7 6 27 18 27 5 0 9 -4 9 -9z m-464 -38 c-3 -3 -13
0 -22 8 -15 12 -14 14 3 20 17 6 32 -15 19 -28z m282 -57 c-11 -27 -12 -27
-25 -10 -18 24 -16 49 4 81 l18 26 7 -34 c4 -20 3 -46 -4 -63z m-52 -3 c-3 -3
-13 -2 -23 1 -17 7 -17 8 0 17 10 6 18 23 19 42 1 24 2 22 5 -12 3 -23 2 -45
-1 -48z m174 78 c0 -6 -4 -13 -10 -16 -5 -3 -10 1 -10 9 0 9 5 16 10 16 6 0
10 -4 10 -9z m-455 -24 c0 -9 9 -23 20 -31 16 -12 18 -17 8 -27 -7 -7 -13 -21
-13 -32 0 -17 -2 -17 -32 4 -21 15 -28 17 -20 7 8 -10 11 -22 7 -28 -3 -5 -1
-10 4 -10 6 0 11 -8 11 -19 0 -14 -6 -17 -25 -13 -22 4 -24 7 -13 20 12 13 10
14 -10 3 -13 -7 -28 -10 -35 -8 -7 2 2 11 18 20 29 16 29 17 8 23 -26 7 -25 6
-17 28 3 9 12 16 20 16 8 0 14 4 14 8 0 5 12 14 26 21 23 10 24 14 13 28 -12
14 -12 16 1 11 8 -2 15 -12 15 -21z m398 16 c3 -5 8 -30 11 -58 3 -27 3 -42 0
-32 -5 14 -9 16 -20 6 -8 -6 -17 -9 -21 -5 -3 3 -1 6 5 6 7 0 12 4 12 9 0 5
-9 7 -20 4 -24 -6 -26 9 -5 31 8 8 12 22 9 30 -6 16 20 24 29 9z m267 -30 c-1
-16 -6 -41 -13 -56 -10 -24 -14 -26 -29 -15 -13 10 -16 22 -11 56 5 36 9 42
29 42 20 0 24 -5 24 -27z m-1144 -4 c32 -36 -15 -79 -50 -44 -20 20 -20 29 0
49 20 21 27 20 50 -5z m1020 -4 c3 -13 12 -29 20 -36 21 -17 17 -42 -15 -114
-38 -83 -55 -84 -68 -5 -7 42 -6 60 1 60 6 0 4 5 -4 10 -11 7 -5 10 23 10 30
0 37 4 37 19 0 11 -4 22 -10 26 -5 3 -7 12 -3 20 8 22 -34 19 -46 -2 -14 -24
-14 -7 -1 18 16 28 58 25 66 -6z m-1526 5 c0 -5 -4 -10 -10 -10 -5 0 -10 5
-10 10 0 6 5 10 10 10 6 0 10 -4 10 -10z m1580 -4 c0 -8 -4 -18 -10 -21 -5 -3
-10 3 -10 14 0 12 5 21 10 21 6 0 10 -6 10 -14z m-460 -6 c0 -5 -4 -10 -10
-10 -5 0 -10 5 -10 10 0 6 5 10 10 10 6 0 10 -4 10 -10z m46 -87 c-3 -3 -17 2
-30 11 l-25 16 27 27 27 28 3 -39 c2 -21 1 -40 -2 -43z m193 10 c-3 -19 2 -25
14 -15 10 8 13 6 14 -11 2 -17 0 -19 -7 -7 -5 8 -10 11 -10 6 0 -11 -30 14
-30 25 0 5 5 9 10 9 6 0 9 -3 9 -7z m251 -10 c0 -5 -10 -19 -21 -33 -15 -18
-19 -20 -15 -7 3 10 6 25 6 33 0 8 7 14 15 14 8 0 15 -3 15 -7z m-750 -33
c-19 -12 -30 -12 -30 -1 0 10 31 20 40 14 2 -2 -2 -8 -10 -13z m274 -3 c8 -12
7 -23 -2 -37 -7 -12 -10 -25 -7 -30 4 -6 1 -10 -5 -10 -13 0 -27 36 -24 64 1
11 3 25 3 29 1 13 23 3 35 -16z m176 14 c0 -5 -9 -11 -20 -14 -22 -6 -28 8 -7
16 19 8 27 8 27 -2z m48 -46 c-3 -3 -9 2 -12 12 -6 14 -5 15 5 6 7 -7 10 -15
7 -18z m-640 -7 c-2 -6 -15 -15 -28 -20 -25 -9 -25 -9 -5 11 22 22 39 27 33 9z
m-138 -7 c0 -5 3 -18 7 -28 6 -17 5 -17 -15 1 -26 22 -28 36 -7 36 8 0 15 -4
15 -9z m609 -30 c-1 -16 -18 -45 -18 -33 -1 7 -8 20 -16 28 -8 9 -15 22 -15
30 0 12 4 12 25 -2 14 -9 25 -19 24 -23z m165 -15 c-5 -13 -9 -14 -14 -5 -11
16 0 43 12 31 5 -5 6 -17 2 -26z m66 15 c0 -10 -7 -24 -15 -31 -12 -10 -15
-10 -15 3 0 23 11 47 21 47 5 0 9 -8 9 -19z m-1072 -14 c2 -10 -3 -17 -12 -17
-9 0 -16 2 -16 4 0 2 -3 12 -6 21 -5 13 -2 16 12 13 10 -2 20 -11 22 -21z
m181 -4 c22 -23 23 -84 2 -100 -22 -17 -31 -16 -31 3 0 27 -25 9 -28 -20 -2
-16 -8 -25 -15 -23 -7 3 -11 10 -9 17 2 8 -6 11 -26 8 -26 -4 -28 -2 -24 24 2
16 -1 35 -8 43 -14 16 -12 17 43 19 15 1 27 -2 27 -6 0 -4 4 -8 9 -8 4 0 8 10
7 23 -1 14 -7 22 -19 21 -16 -2 -22 7 -12 17 11 12 68 -1 84 -18z m774 -3 c-3
-12 -8 -19 -11 -16 -5 6 5 36 12 36 2 0 2 -9 -1 -20z m-28 0 c3 -5 1 -10 -4
-10 -6 0 -11 5 -11 10 0 6 2 10 4 10 3 0 8 -4 11 -10z m100 -55 c-2 -36 -5
-69 -9 -72 -3 -4 -6 4 -6 16 0 13 -4 20 -11 16 -6 -4 -8 -13 -5 -21 3 -9 -2
-14 -14 -14 -23 0 -26 13 -6 29 15 12 11 46 -7 69 -8 10 -4 13 19 10 17 -2 29
2 30 10 2 18 4 22 7 22 2 0 3 -29 2 -65z m-704 5 c12 0 16 -8 15 -30 0 -17 -5
-29 -11 -27 -5 2 -21 -2 -34 -9 -14 -7 -29 -10 -35 -7 -5 4 2 11 16 15 32 11
42 32 22 48 -8 7 -14 17 -14 23 0 7 4 7 12 -1 7 -7 20 -12 29 -12z m-417 -15
c3 -8 1 -15 -4 -15 -6 0 -10 7 -10 15 0 8 2 15 4 15 2 0 6 -7 10 -15z m617
-18 c9 -11 21 -17 28 -13 6 4 11 1 11 -8 0 -9 -3 -16 -7 -16 -14 0 -93 52 -93
61 0 16 43 -1 61 -24z m139 19 c0 -3 -4 -8 -10 -11 -5 -3 -10 -1 -10 4 0 6 5
11 10 11 6 0 10 -2 10 -4z m-153 -91 c-3 -25 -57 -35 -57 -11 0 9 6 16 13 17
10 0 10 2 0 6 -7 2 -13 16 -13 30 l0 25 30 -24 c18 -14 29 -31 27 -43z m103
43 c0 -6 13 -8 33 -5 17 3 26 3 19 0 -6 -2 -10 -9 -7 -14 4 -5 -1 -6 -9 -3 -9
3 -16 1 -16 -5 0 -6 5 -11 12 -11 6 0 8 -3 5 -6 -4 -4 -20 -1 -37 6 -21 9 -30
19 -30 36 0 17 4 22 15 18 8 -4 15 -11 15 -16z m57 16 c-3 -3 -12 -4 -19 -1
-8 3 -5 6 6 6 11 1 17 -2 13 -5z m-309 -42 c2 -7 -3 -12 -12 -12 -9 0 -16 7
-16 16 0 17 22 14 28 -4z m-308 -7 c0 -8 -7 -15 -15 -15 -9 0 -12 6 -9 15 4 8
10 15 15 15 5 0 9 -7 9 -15z m160 3 c0 -11 -28 -10 -35 1 -3 6 4 9 15 8 11 -1
20 -5 20 -9z m190 -50 c0 -10 -7 -18 -15 -18 -17 0 -18 4 -8 38 4 18 8 20 14
10 5 -7 9 -21 9 -30z m140 21 c0 -6 -4 -7 -10 -4 -5 3 -10 11 -10 16 0 6 5 7
10 4 6 -3 10 -11 10 -16z m-568 -7 c-1 -7 5 -15 13 -18 8 -4 15 -14 15 -24 0
-10 5 -20 12 -22 7 -3 8 -10 4 -17 -7 -11 -10 -11 -17 0 -10 17 -50 18 -66 2
-7 -6 -18 -14 -25 -17 -10 -3 -8 -8 5 -16 9 -6 17 -16 17 -21 0 -16 -63 1 -83
23 -12 12 -26 17 -38 13 -23 -8 -24 1 -3 22 8 9 13 24 11 34 -4 16 -2 17 14 8
34 -18 72 -7 87 24 10 20 20 27 35 25 12 -2 21 -9 19 -16z m1208 -2 c0 -5 -5
-10 -11 -10 -5 0 -7 5 -4 10 3 6 8 10 11 10 2 0 4 -4 4 -10z m-1070 -26 c0
-16 -16 -19 -25 -4 -8 13 4 32 16 25 5 -4 9 -13 9 -21z m476 12 c3 -8 13 -12
25 -9 10 3 19 0 19 -6 0 -5 8 -8 18 -5 15 5 15 4 1 -8 -9 -7 -14 -19 -11 -27
3 -10 -2 -13 -20 -9 -19 4 -29 -2 -44 -24 -10 -16 -31 -36 -46 -44 -28 -14
-28 -14 -28 19 0 25 9 42 35 67 20 19 33 40 31 47 -3 7 -1 13 5 13 5 0 12 -6
15 -14z m-875 -8 c12 0 15 -5 12 -19 -4 -12 2 -25 13 -34 28 -20 14 -26 -32
-14 -55 15 -69 31 -52 58 8 13 19 19 28 15 8 -4 22 -6 31 -6z m1509 -8 c0 -5
-8 -10 -17 -10 -15 0 -16 2 -3 10 19 12 20 12 20 0z m-1150 -75 c15 -45 7 -73
-15 -55 -16 14 -21 90 -6 90 5 0 15 -16 21 -35z m230 18 c0 -8 -11 -31 -25
-53 -15 -24 -21 -41 -14 -45 13 -9 -8 -35 -30 -36 -9 0 -4 -5 11 -10 22 -9 26
-16 25 -43 -2 -25 -6 -32 -17 -28 -8 3 -4 -4 10 -16 22 -18 23 -23 12 -41 -10
-17 -10 -21 1 -21 7 0 19 6 25 12 7 7 20 13 29 13 9 0 17 6 19 13 1 7 0 8 -3
2 -6 -13 -33 6 -33 24 0 6 5 4 11 -4 8 -11 12 -12 16 -2 2 6 10 12 15 12 6 0
8 -3 5 -7 -4 -3 2 -12 13 -20 18 -13 30 -50 12 -39 -4 2 -13 -7 -20 -22 -8
-17 -8 -22 -1 -15 16 16 75 -23 94 -63 8 -17 26 -42 41 -57 15 -15 23 -31 18
-38 -4 -7 -3 -9 3 -6 6 4 16 -6 23 -21 18 -37 40 -112 34 -112 -16 0 -44 23
-44 35 0 11 -12 15 -42 15 -66 0 -70 -6 -66 -94 2 -42 0 -76 -4 -76 -5 0 -8
38 -8 85 0 74 -2 86 -20 95 -12 6 -20 7 -20 1 0 -5 -31 -9 -69 -9 -38 0 -79
-3 -90 -7 -15 -5 -23 1 -35 23 -8 16 -22 32 -31 35 -8 4 -15 13 -15 22 0 13 4
14 23 3 12 -6 33 -11 47 -10 14 2 46 -1 72 -6 42 -8 47 -7 52 10 6 24 -3 50
-14 43 -5 -3 -21 6 -36 20 -15 14 -24 25 -20 25 4 0 -8 18 -27 40 -19 22 -49
66 -66 98 -30 54 -34 39 -6 -20 l13 -28 -24 18 c-24 17 -44 67 -44 110 0 13
-4 31 -9 41 -8 13 -4 24 16 45 20 22 21 27 8 24 -29 -5 -28 19 0 38 21 14 28
15 35 5 5 -9 10 -10 14 -2 4 6 16 11 27 11 16 0 19 5 14 19 -5 16 0 20 22 24
48 7 73 3 73 -10z m1366 -59 c-6 -16 -56 -20 -56 -4 0 5 7 7 15 4 8 -4 15 -2
15 4 0 6 -6 12 -12 15 -9 3 -4 11 12 25 l25 20 3 -25 c2 -13 1 -31 -2 -39z
m-1711 46 c-3 -5 -1 -10 4 -10 6 0 11 5 11 10 0 6 6 10 13 10 14 0 51 -60 41
-69 -4 -3 -9 0 -11 7 -3 6 -9 10 -14 6 -5 -3 -9 -1 -9 5 0 6 -7 8 -16 4 -16
-6 -34 12 -34 35 0 6 5 12 11 12 5 0 7 -4 4 -10z m700 -18 c1 -13 8 -28 16
-34 10 -6 -1 -8 -34 -5 -47 5 -48 4 -45 -21 4 -30 28 -43 28 -14 0 17 7 20 39
19 22 -1 38 -4 35 -8 -2 -4 0 -9 6 -11 5 -1 14 -28 19 -58 5 -30 9 -47 10 -37
1 21 21 23 21 2 0 -8 7 -15 15 -15 8 0 19 -9 25 -20 9 -17 7 -26 -3 -17 -2 1
-15 -6 -29 -15 -25 -17 -64 -15 -53 2 3 4 -5 20 -16 34 -12 15 -18 30 -15 34
4 3 11 1 15 -7 7 -10 9 -9 14 3 9 23 -21 50 -39 35 -8 -6 -25 -9 -39 -7 -14 3
-25 1 -25 -5 0 -7 -4 -7 -12 1 -17 17 -28 15 -28 -4 0 -9 -6 -14 -12 -11 -7 2
-13 12 -13 23 0 10 -6 29 -13 41 -11 19 -7 27 36 72 35 38 53 50 71 49 18 -2
25 -10 26 -26z m-883 -4 c-7 -7 -12 -8 -12 -2 0 14 12 26 19 19 2 -3 -1 -11
-7 -17z m258 12 c0 -5 -2 -10 -4 -10 -3 0 -8 5 -11 10 -3 6 -1 10 4 10 6 0 11
-4 11 -10z m1314 -26 c9 -36 -1 -43 -14 -10 -12 33 -12 36 -1 36 5 0 12 -12
15 -26z m-1679 -24 c7 -23 -1 -40 -19 -40 -17 0 -27 48 -12 54 20 8 25 6 31
-14z m50 10 c-3 -5 -14 -10 -23 -9 -14 0 -13 2 3 9 27 11 27 11 20 0z m385
-41 c0 -5 -7 -9 -15 -9 -15 0 -20 12 -9 23 8 8 24 -1 24 -14z m255 11 c3 -5
-1 -10 -10 -10 -9 0 -13 5 -10 10 3 6 8 10 10 10 2 0 7 -4 10 -10z m865 1 c0
-10 -30 -24 -37 -17 -3 3 -2 9 2 15 8 13 35 15 35 2z m306 -6 c14 -13 13 -15
-10 -15 -25 0 -33 10 -19 23 9 10 13 9 29 -8z m-742 -26 c-8 -14 -34 -10 -34
5 0 9 7 12 20 9 11 -3 17 -9 14 -14z m323 15 c-3 -3 -12 -4 -19 -1 -8 3 -5 6
6 6 11 1 17 -2 13 -5z m386 -18 c3 -6 -2 -17 -9 -24 -14 -13 -19 -5 -15 21 0
4 -6 7 -15 7 -14 0 -14 -3 -4 -15 15 -18 9 -28 -13 -19 -27 10 -1 52 28 46 13
-2 26 -9 28 -16z m-1943 -6 c0 -5 -4 -10 -10 -10 -5 0 -10 5 -10 10 0 6 5 10
10 10 6 0 10 -4 10 -10z m1980 -11 c0 -19 -31 -41 -55 -41 -14 0 -25 -7 -27
-16 -2 -11 -7 -8 -15 10 -11 24 -10 26 13 24 13 0 24 -4 24 -8 0 -5 9 1 20 12
11 11 20 25 20 31 0 5 5 7 10 4 6 -3 10 -11 10 -16z m-1082 -10 c2 -5 10 -9
18 -9 14 0 31 -46 20 -57 -3 -4 -6 2 -6 13 0 27 -37 49 -56 33 -9 -7 -14 -8
-14 -1 0 6 -3 18 -7 27 -5 14 -2 16 18 10 13 -4 26 -12 27 -16z m1156 -9 c-10
-4 -25 -5 -32 -2 -22 8 6 21 31 14 20 -5 20 -6 1 -12z m-1979 0 c3 -5 -1 -10
-10 -10 -9 0 -13 5 -10 10 3 6 8 10 10 10 2 0 7 -4 10 -10z m2055 -4 c0 -3 -4
-8 -10 -11 -5 -3 -10 -1 -10 4 0 6 5 11 10 11 6 0 10 -2 10 -4z m-105 -20 c13
2 27 0 30 -6 4 -6 11 -7 17 -4 6 4 6 -1 -1 -14 -6 -11 -17 -22 -25 -25 -17 -7
-41 18 -31 32 3 7 0 8 -9 5 -11 -4 -16 0 -15 12 0 11 3 14 5 7 3 -6 16 -10 29
-7z m-745 -2 c0 -3 -5 -15 -11 -26 -9 -16 -13 -18 -20 -7 -4 8 -3 19 3 26 11
13 28 18 28 7z m490 -6 c0 -6 -3 -8 -7 -5 -3 4 -12 -1 -19 -11 -12 -16 -13
-16 -14 0 0 15 12 25 33 27 4 1 7 -4 7 -11z m-680 -33 c10 -12 10 -15 -4 -15
-9 0 -16 7 -16 15 0 8 2 15 4 15 2 0 9 -7 16 -15z m-93 -17 c-3 -8 -6 -5 -6 6
-1 11 2 17 5 13 3 -3 4 -12 1 -19z m-77 -9 c0 -4 -3 -10 -8 -13 -9 -5 -44 19
-36 26 7 8 44 -3 44 -13z m182 -15 c8 14 12 13 39 -6 24 -18 27 -24 14 -30 -8
-5 -23 -4 -36 2 -18 10 -20 9 -15 -8 5 -15 0 -21 -26 -30 -32 -11 -32 -12 12
-7 25 3 54 6 64 8 16 2 23 -9 37 -63 20 -75 23 -120 8 -120 -5 0 -8 -4 -5 -9
3 -5 -1 -11 -9 -15 -8 -3 -15 -13 -15 -22 0 -12 -6 -15 -26 -10 -25 7 -26 6
-9 -10 13 -14 16 -28 11 -63 -3 -24 -8 -47 -11 -50 -18 -17 -70 118 -66 172 1
18 -2 26 -9 22 -24 -15 -36 25 -29 93 5 50 3 72 -7 87 -8 10 -14 26 -14 33 0
12 3 12 16 1 15 -12 16 -11 10 9 -5 14 -3 29 4 37 10 13 15 11 33 -11 17 -23
21 -24 29 -10z m880 -19 c-2 -14 -11 -25 -19 -25 -14 0 -11 10 10 38 13 17 15
15 9 -13z m-75 -1 c-3 -3 -12 -4 -19 -1 -8 3 -5 6 6 6 11 1 17 -2 13 -5z m-67
-8 c0 -3 -4 -8 -10 -11 -5 -3 -10 -1 -10 4 0 6 5 11 10 11 6 0 10 -2 10 -4z
m-890 -36 c0 -12 -26 -30 -33 -23 -4 3 -7 14 -7 24 0 12 6 16 20 12 11 -3 20
-9 20 -13z m1726 -16 c-14 -13 -20 -14 -29 -5 -9 10 -8 16 7 27 27 19 45 1 22
-22z m-1467 -19 c0 -5 -6 -1 -14 9 -8 11 -15 24 -15 30 0 5 7 1 15 -10 8 -10
14 -23 14 -29z m224 8 c-7 -2 -19 -2 -25 0 -7 3 -2 5 12 5 14 0 19 -2 13 -5z
m264 -9 c-3 -3 -12 -4 -19 -1 -8 3 -5 6 6 6 11 1 17 -2 13 -5z m918 -24 c3 -5
2 -10 -4 -10 -5 0 -13 5 -16 10 -3 6 -2 10 4 10 5 0 13 -4 16 -10z m-1647 -18
c2 -7 -6 -12 -17 -12 -21 0 -27 11 -14 24 9 9 26 2 31 -12z m469 -2 c25 0 31
-4 27 -15 -8 -20 -68 -20 -88 1 -22 21 -20 27 7 20 12 -3 36 -6 54 -6z m1026
-25 c11 -7 36 -16 56 -20 l38 -6 -38 -76 c-21 -41 -42 -80 -48 -86 -17 -17
-14 33 4 67 17 33 20 50 3 21 -11 -19 -11 -19 -19 0 -6 16 -8 12 -8 -15 -1
-19 -4 -45 -7 -57 -7 -25 -24 -31 -24 -9 0 17 -27 30 -55 27 -16 -3 -17 -1 -6
13 7 9 21 16 30 17 11 0 9 3 -6 9 -13 5 -23 12 -23 15 0 4 5 3 10 0 6 -3 10
-1 10 4 0 6 6 11 14 11 7 0 19 6 25 13 9 12 -1 13 -58 10 -64 -3 -69 -2 -64
16 7 26 43 34 61 13 13 -16 13 -16 8 2 -13 38 58 61 97 31z m-586 -1 c-3 -3
-12 -4 -19 -1 -8 3 -5 6 6 6 11 1 17 -2 13 -5z m717 -32 c3 -5 -1 -9 -9 -9 -8
0 -12 4 -9 9 3 4 7 8 9 8 2 0 6 -4 9 -8z m-334 -46 c0 -4 -6 -6 -14 -3 -10 4
-12 0 -9 -14 6 -21 -7 -25 -24 -8 -8 8 -7 19 5 39 15 25 17 26 29 12 7 -10 13
-21 13 -26z m325 14 c4 -6 15 -8 25 -5 16 5 18 1 15 -41 -1 -26 1 -41 5 -34 5
8 13 9 24 3 14 -7 9 -15 -28 -52 -41 -40 -44 -42 -51 -22 -8 25 -25 18 -25
-10 0 -10 -3 -20 -7 -20 -44 -7 -63 -6 -58 1 3 4 -1 11 -7 14 -11 5 -11 7 0
12 6 3 10 9 7 13 -2 5 8 7 23 5 15 -2 19 -1 10 2 -45 14 -5 68 49 68 40 1 49
18 17 30 -9 3 -12 1 -9 -4 3 -6 -5 -10 -20 -10 -25 0 -25 0 -10 30 16 31 29
37 40 20z m-2215 -10 c0 -5 -7 -7 -15 -4 -8 4 -15 8 -15 10 0 2 7 4 15 4 8 0
15 -4 15 -10z m61 -5 c52 -18 119 -61 119 -75 0 -15 -44 -30 -69 -23 -11 3
-23 14 -26 24 -4 10 -13 19 -22 19 -8 0 -17 9 -20 20 -7 25 -23 26 -23 3 -1
-17 -1 -17 -10 -1 -8 13 -5 48 5 48 1 0 22 -7 46 -15z m-541 -11 c0 -8 -5 -12
-10 -9 -6 4 -8 11 -5 16 9 14 15 11 15 -7z m2915 -23 c0 -8 -9 -17 -21 -21
-18 -7 -20 -5 -16 16 5 26 37 30 37 5z m-1335 -37 c0 -34 -1 -35 -28 -29 -21
4 -33 1 -47 -15 -21 -23 -41 -26 -48 -6 -3 8 5 19 21 26 75 36 92 45 92 52 0
5 2 8 5 8 3 0 5 -16 5 -36z m1225 20 c-7 -8 -21 -11 -29 -8 -22 8 -13 19 18
20 22 2 23 0 11 -12z m-2885 -9 c0 -13 -4 -14 -20 -5 -11 6 -20 13 -20 15 0 3
9 5 20 5 11 0 20 -7 20 -15z m2950 -29 c-6 -6 -18 -5 -35 4 -32 17 -12 33 22
17 16 -7 20 -14 13 -21z m-2703 2 c-3 -8 -6 -5 -6 6 -1 11 2 17 5 13 3 -3 4
-12 1 -19z m2023 12 c0 -5 -2 -10 -4 -10 -3 0 -8 5 -11 10 -3 6 -1 10 4 10 6
0 11 -4 11 -10z m222 -34 c8 5 9 2 5 -10 -4 -10 -7 -29 -7 -42 0 -22 -4 -24
-42 -24 -24 0 -60 5 -80 11 -35 9 -38 13 -38 45 0 29 3 34 18 30 9 -3 33 -1
52 3 25 6 42 4 58 -6 12 -8 28 -11 34 -7z m-2137 4 c-3 -5 -1 -10 5 -10 8 0 8
-6 0 -20 -6 -11 -8 -26 -4 -33 6 -8 3 -8 -8 1 -9 8 -15 20 -12 28 2 8 6 21 9
29 2 8 7 15 10 15 4 0 3 -4 0 -10z m560 0 c4 -6 16 -8 27 -4 15 5 19 3 13 -7
-22 -38 -27 -39 -59 -17 -17 13 -26 15 -18 6 10 -12 10 -17 -1 -27 -18 -14
-27 -4 -27 31 0 24 4 28 29 28 17 0 33 -5 36 -10z m-85 -30 c0 -32 -9 -36 -42
-19 -14 8 -23 8 -31 0 -14 -14 -27 -14 -27 -1 0 14 60 50 83 50 12 0 17 -8 17
-30z m-823 -12 c-3 -7 -5 -2 -5 12 0 14 2 19 5 13 2 -7 2 -19 0 -25z m718 22
c-3 -5 -12 -10 -18 -10 -7 0 -6 4 3 10 19 12 23 12 15 0z m-600 -19 c6 -21 -9
-67 -24 -72 -7 -3 -7 -9 -1 -19 8 -13 10 -12 10 3 0 9 4 17 9 17 5 0 11 9 14
20 3 11 10 20 17 20 7 0 9 -8 5 -19 -3 -11 -1 -22 5 -26 5 -3 10 1 10 9 0 9 7
16 15 16 8 0 15 -9 15 -20 0 -15 -7 -20 -25 -20 -35 0 -78 -47 -70 -75 14 -45
11 -50 -26 -50 -20 0 -43 -6 -52 -14 -16 -12 -17 -5 -17 97 l0 111 40 11 c21
6 42 15 45 20 10 16 23 12 30 -9z m275 15 c0 -2 -7 -7 -16 -10 -8 -3 -12 -2
-9 4 6 10 25 14 25 6z m-80 -16 c0 -5 -5 -10 -11 -10 -5 0 -7 5 -4 10 3 6 8
10 11 10 2 0 4 -4 4 -10z m110 -20 c-8 -6 -22 -10 -30 -9 -9 0 -5 6 10 14 27
14 44 10 20 -5z m480 -1 c0 -6 -4 -7 -10 -4 -5 3 -10 11 -10 16 0 6 5 7 10 4
6 -3 10 -11 10 -16z m1623 -21 c-9 -15 -23 -8 -23 12 0 17 2 19 14 8 8 -7 12
-16 9 -20z m-2246 2 c3 -10 2 -11 -4 -4 -4 6 -15 14 -23 17 -11 5 -9 6 4 4 11
-1 21 -9 23 -17z m26 0 c3 -11 1 -23 -4 -26 -5 -3 -9 6 -9 20 0 31 6 34 13 6z
m327 0 c0 -5 -2 -10 -4 -10 -3 0 -8 5 -11 10 -3 6 -1 10 4 10 6 0 11 -4 11
-10z m-110 -8 c0 -9 -25 -47 -54 -82 -12 -14 0 -5 25 20 25 25 48 51 50 59 4
11 10 11 39 -1 19 -8 45 -13 58 -12 l23 1 -22 -23 c-12 -13 -28 -20 -36 -17
-12 5 -14 1 -9 -14 5 -14 1 -23 -10 -27 -12 -5 -14 -9 -5 -20 12 -15 2 -27
-34 -40 -19 -8 -19 -8 3 -17 31 -12 29 -47 -5 -61 l-28 -12 28 -4 c18 -2 25
-7 20 -15 -11 -18 -12 -38 -2 -31 20 12 28 -8 13 -32 -14 -21 -15 -24 -1 -24
8 0 18 6 20 13 3 6 6 1 6 -12 1 -15 6 -21 15 -18 18 7 36 -12 29 -30 -4 -11 0
-13 19 -8 21 6 24 3 22 -17 -1 -13 -3 -29 -3 -37 -1 -19 -81 -8 -93 12 -4 9
-26 18 -47 22 -31 5 -39 10 -34 23 4 12 -1 10 -17 -6 -12 -13 -20 -26 -17 -28
3 -3 26 -8 51 -12 52 -8 59 -29 9 -24 -24 2 -35 -2 -43 -18 -6 -11 -7 -20 -3
-20 4 0 3 -4 -2 -8 -6 -4 -16 -19 -22 -34 -7 -16 -17 -28 -23 -28 -6 0 -8 5
-5 10 3 6 1 10 -4 10 -6 0 -11 -9 -11 -19 0 -28 -47 -13 -63 19 -7 14 -19 25
-27 25 -19 0 -26 35 -9 46 17 10 32 1 25 -17 -3 -7 0 -16 7 -20 7 -4 9 -3 4 1
-4 5 1 17 10 28 17 18 17 19 -2 16 -14 -3 -20 2 -21 16 -1 11 -2 26 -3 34 0 9
-15 0 -37 -23 -39 -40 -57 -42 -62 -6 -3 21 -1 22 27 17 34 -7 52 8 22 18 -23
7 -25 42 -3 67 12 14 11 20 -3 42 -9 14 -15 26 -13 28 8 8 -28 35 -43 31 -24
-7 -48 23 -41 49 5 20 3 21 -10 11 -12 -11 -18 -10 -32 6 -16 17 -16 18 8 14
13 -3 34 0 46 7 13 7 20 8 16 2 -3 -6 4 -12 16 -14 16 -2 24 -11 28 -32 l5
-29 35 32 c41 38 73 48 105 33 18 -8 26 -8 35 4 11 12 6 14 -33 14 -40 0 -45
3 -50 25 -3 17 0 24 7 22 6 -2 10 -11 9 -19 -2 -10 5 -13 31 -10 27 3 33 7 29
23 -4 13 -14 19 -35 19 -16 0 -39 5 -50 11 -15 8 -22 8 -28 0 -4 -7 -17 -13
-28 -14 -12 -1 -22 -5 -22 -9 0 -4 -4 -8 -10 -8 -22 0 -8 22 20 32 22 7 33 18
37 39 3 16 7 29 10 29 2 0 16 -11 30 -24 15 -14 30 -23 34 -20 4 2 10 0 14 -6
12 -19 25 -10 20 13 -7 31 6 48 46 57 47 11 49 11 49 2z m2537 2 c-3 -3 -12
-4 -19 -1 -8 3 -5 6 6 6 11 1 17 -2 13 -5z m-182 -13 c-3 -2 -16 -6 -28 -8
-15 -2 -18 0 -9 5 14 9 45 12 37 3z m-228 -9 c7 -4 10 -17 7 -29 -9 -34 -73
-18 -74 19 0 4 10 9 23 11 12 2 24 5 27 5 3 1 10 -2 17 -6z m406 1 c-7 -2 -19
-2 -25 0 -7 3 -2 5 12 5 14 0 19 -2 13 -5z m-109 -17 c-3 -8 -12 -12 -20 -9
-17 6 -9 23 11 23 8 0 12 -6 9 -14z m346 4 c0 -5 -2 -10 -4 -10 -3 0 -8 5 -11
10 -3 6 -1 10 4 10 6 0 11 -4 11 -10z m-727 -14 c9 -22 -19 -41 -38 -26 -8 7
-15 19 -15 26 0 19 46 18 53 0z m-353 -6 c0 -5 -5 -10 -11 -10 -5 0 -7 5 -4
10 3 6 8 10 11 10 2 0 4 -4 4 -10z m525 1 c8 -13 -32 -33 -53 -28 -14 4 -13 6
6 12 12 4 22 11 22 16 0 12 17 11 25 0z m170 -5 c19 -8 35 -17 35 -19 0 -2
-20 -3 -45 -3 -41 1 -56 12 -38 29 9 9 8 9 48 -7z m-90 -6 c3 -6 -1 -7 -9 -4
-18 7 -21 14 -7 14 6 0 13 -4 16 -10z m-1225 -10 c0 -5 -7 -10 -15 -10 -8 0
-15 5 -15 10 0 6 7 10 15 10 8 0 15 -4 15 -10z m610 -15 c10 -12 10 -15 -4
-15 -9 0 -16 7 -16 15 0 8 2 15 4 15 2 0 9 -7 16 -15z m90 -6 c0 -6 -4 -7 -10
-4 -5 3 -10 11 -10 16 0 6 5 7 10 4 6 -3 10 -11 10 -16z m-2093 -5 c-3 -3 -12
-4 -19 -1 -8 3 -5 6 6 6 11 1 17 -2 13 -5z m2568 -4 c3 -5 1 -10 -4 -10 -6 0
-11 5 -11 10 0 6 2 10 4 10 3 0 8 -4 11 -10z m-1169 -27 c-4 -10 -7 -68 -7
-130 0 -63 -4 -113 -10 -113 -5 0 -9 8 -9 18 0 22 -53 134 -83 175 -38 51 -40
56 -15 54 13 -1 29 -7 36 -14 11 -10 20 -9 50 7 46 24 46 24 38 3z m-1342 -2
c3 -5 -3 -11 -13 -14 -14 -3 -18 -1 -14 9 6 16 19 18 27 5z m1085 -5 c7 -8 8
-17 3 -20 -6 -3 -12 3 -15 14 -6 24 -4 25 12 6z m1501 -22 c-10 -24 -9 -26 12
-21 18 5 26 0 35 -18 7 -16 8 -25 1 -25 -7 0 -6 -5 1 -14 9 -11 9 -16 1 -21
-18 -11 -36 11 -22 27 7 9 7 19 2 28 -9 13 -10 13 -10 0 0 -11 -5 -10 -20 5
-19 20 -19 65 1 65 5 0 4 -12 -1 -26z m-1065 -3 c6 -11 -33 -26 -43 -16 -4 3
0 10 8 15 19 12 27 12 35 1z m62 -4 c-5 -15 -29 -16 -34 -2 -2 6 6 11 18 12
12 1 19 -3 16 -10z m-537 -11 c0 -2 -7 -7 -16 -10 -8 -3 -12 -2 -9 4 6 10 25
14 25 6z m-80 -26 c0 -5 -5 -10 -11 -10 -5 0 -7 5 -4 10 3 6 8 10 11 10 2 0 4
-4 4 -10z m204 -32 c57 -98 97 -208 75 -208 -5 0 -9 11 -9 25 0 15 -7 28 -17
32 -10 4 -21 11 -25 17 -5 8 -8 8 -8 0 0 -7 -9 -14 -20 -17 -11 -3 -20 -1 -20
5 0 5 -6 15 -13 23 -15 14 -15 35 -3 73 8 23 21 29 31 12 3 -5 10 -10 16 -10
5 0 4 8 -3 19 -14 22 -30 21 -57 -3 -15 -14 -18 -23 -11 -37 13 -24 13 -26 -6
-33 -19 -7 -47 12 -38 25 9 15 24 10 24 -7 0 -8 5 -12 10 -9 7 4 7 12 0 24 -7
14 -4 23 11 37 11 10 19 27 18 38 -3 51 12 48 45 -6z m-88 17 c-11 -8 -25 -15
-30 -15 -6 1 0 7 14 15 32 19 40 18 16 0z m374 -4 c0 -6 -4 -13 -10 -16 -5 -3
-10 1 -10 9 0 9 5 16 10 16 6 0 10 -4 10 -9z m-505 -31 c-28 -12 -45 -12 -45
0 0 6 15 10 33 9 27 0 29 -2 12 -9z m-1018 -67 c-15 -16 -17 -16 -17 -1 0 9 6
18 13 21 20 7 22 -2 4 -20z m-149 -39 c13 -9 12 -12 -3 -18 -22 -8 -21 -9 -28
34 -6 30 -5 32 5 15 6 -11 18 -25 26 -31z m-58 6 c0 -5 -4 -10 -10 -10 -5 0
-10 5 -10 10 0 6 5 10 10 10 6 0 10 -4 10 -10z m290 1 c0 -12 -20 -25 -27 -18
-7 7 6 27 18 27 5 0 9 -4 9 -9z m1010 -11 c0 -5 -2 -10 -4 -10 -3 0 -8 5 -11
10 -3 6 -1 10 4 10 6 0 11 -4 11 -10z m-1310 -25 c10 -12 10 -15 -4 -15 -9 0
-16 7 -16 15 0 8 2 15 4 15 2 0 9 -7 16 -15z m1215 -13 c-3 -3 -11 0 -18 7 -9
10 -8 11 6 5 10 -3 15 -9 12 -12z m512 -34 c-3 -7 -5 -2 -5 12 0 14 2 19 5 13
2 -7 2 -19 0 -25z m-1512 12 c8 -13 -5 -13 -25 0 -13 8 -13 10 2 10 9 0 20 -4
23 -10z m-95 -46 c0 -8 -5 -12 -10 -9 -6 4 -8 11 -5 16 9 14 15 11 15 -7z
m-83 -31 c-3 -10 -5 -4 -5 12 0 17 2 24 5 18 2 -7 2 -21 0 -30z m530 2 c7 -21
2 -25 -25 -18 -18 4 -20 8 -11 19 15 18 28 18 36 -1z m409 -40 c31 -24 62 -65
49 -65 -4 0 -3 -5 1 -11 4 -8 9 -8 17 0 6 6 18 11 27 11 13 -1 13 -2 -1 -13
-8 -7 -18 -20 -22 -30 -4 -9 -17 -21 -29 -26 -26 -10 -97 -81 -82 -81 5 0 0
-8 -11 -16 -19 -15 -19 -16 13 -12 18 3 35 1 38 -3 2 -5 11 -6 19 -2 24 9 17
-21 -10 -45 -32 -28 -71 -28 -85 -2 -14 25 -3 68 18 73 12 3 11 5 -5 6 -15 1
-23 -6 -25 -21 -2 -14 -11 -22 -25 -23 -12 -1 -37 -16 -54 -33 -40 -39 -66
-41 -79 -7 -8 22 -15 25 -58 25 l-49 0 -7 41 c-6 34 -3 43 16 59 15 11 25 14
29 8 4 -6 11 -8 17 -4 6 3 14 -3 17 -15 4 -11 9 -18 13 -15 3 3 0 17 -8 30
-15 29 -6 76 15 76 8 0 15 8 16 18 0 13 3 11 10 -6 13 -34 29 -17 22 25 -5 32
-2 39 28 64 30 24 40 27 92 24 44 -3 68 -11 93 -30z m908 -1 c5 -14 4 -15 -9
-4 -17 14 -19 20 -6 20 5 0 12 -7 15 -16z m708 -36 c-6 -6 -16 -7 -22 -3 -9 6
-9 9 1 16 17 10 34 0 21 -13z m-1168 -114 c9 -22 8 -24 -9 -18 -8 4 -15 12
-15 20 0 19 16 18 24 -2z m521 -9 c0 -23 -30 -32 -50 -15 -25 21 -17 37 18 36
25 -1 32 -5 32 -21z m-880 5 c-3 -5 -10 -10 -16 -10 -5 0 -9 5 -9 10 0 6 7 10
16 10 8 0 12 -4 9 -10z m208 -77 c4 -3 2 -12 -4 -20 -15 -18 -59 -17 -59 2 0
8 6 12 14 9 8 -3 17 -1 21 5 7 12 19 14 28 4z m1187 -29 c0 -14 -4 -22 -10
-19 -5 3 -10 17 -10 31 0 14 4 22 10 19 6 -3 10 -17 10 -31z m268 7 c-2 -19
-8 -25 -21 -23 -10 2 -24 -2 -31 -8 -16 -13 -46 -3 -46 15 0 7 16 19 36 27 53
21 66 19 62 -11z m-1608 -146 c0 -8 -7 -15 -15 -15 -13 0 -14 3 -3 15 16 18
18 18 18 0z"/>
<path d="M2783 4335 c1 -16 7 -36 13 -42 15 -15 28 -17 19 -3 -3 6 0 10 7 10
8 0 6 5 -5 11 -10 6 -22 20 -27 32 -8 19 -9 18 -7 -8z"/>
<path d="M2770 4274 c0 -8 5 -12 10 -9 6 4 8 11 5 16 -9 14 -15 11 -15 -7z"/>
<path d="M1980 3751 c0 -5 -3 -16 -6 -24 -3 -8 2 -17 12 -21 13 -5 15 -2 11
14 -7 28 0 25 16 -6 9 -17 17 -23 21 -15 4 6 3 11 -3 11 -5 0 -12 9 -16 19 -6
20 -35 37 -35 22z"/>
<path d="M1915 3640 c3 -5 8 -10 11 -10 2 0 4 5 4 10 0 6 -5 10 -11 10 -5 0
-7 -4 -4 -10z"/>
<path d="M1735 3700 c3 -5 8 -10 11 -10 2 0 4 5 4 10 0 6 -5 10 -11 10 -5 0
-7 -4 -4 -10z"/>
<path d="M2252 3481 c-21 -29 -20 -41 5 -41 10 0 12 7 8 19 -3 12 0 21 10 25
8 3 15 10 15 16 0 18 -16 10 -38 -19z"/>
<path d="M2220 3416 c0 -2 7 -7 16 -10 8 -3 12 -2 9 4 -6 10 -25 14 -25 6z"/>
<path d="M2401 3388 c-17 -27 -9 -33 13 -9 10 10 13 21 9 24 -5 3 -15 -3 -22
-15z"/>
<path d="M3790 3025 c-16 -19 -7 -30 17 -21 14 6 15 9 4 15 -11 7 -11 9 0 14
8 3 9 6 3 6 -6 1 -17 -6 -24 -14z"/>
<path d="M1485 2821 c-6 -11 9 -23 19 -14 9 9 7 23 -3 23 -6 0 -12 -4 -16 -9z"/>
<path d="M1746 2894 c-3 -8 1 -14 9 -14 20 0 28 17 11 23 -8 3 -17 -1 -20 -9z"/>
<path d="M1955 2760 c-3 -5 1 -10 10 -10 9 0 13 5 10 10 -3 6 -8 10 -10 10 -2
0 -7 -4 -10 -10z"/>
<path d="M1845 2700 c-3 -5 1 -10 10 -10 9 0 13 5 10 10 -3 6 -8 10 -10 10 -2
0 -7 -4 -10 -10z"/>
<path d="M1867 2433 c-4 -3 -7 -11 -7 -17 0 -6 5 -5 12 2 6 6 9 14 7 17 -3 3
-9 2 -12 -2z"/>
<path d="M2145 2215 l-40 -13 47 1 c25 1 43 6 40 11 -3 5 2 7 11 3 10 -3 17
-2 17 3 0 13 -25 11 -75 -5z"/>
<path d="M2230 2194 c0 -8 5 -12 10 -9 6 4 8 11 5 16 -9 14 -15 11 -15 -7z"/>
<path d="M3366 5235 c-3 -8 -1 -15 3 -15 5 0 11 7 15 15 3 8 1 15 -3 15 -5 0
-11 -7 -15 -15z"/>
<path d="M3935 5190 c-3 -5 1 -10 9 -10 9 0 16 5 16 10 0 6 -4 10 -9 10 -6 0
-13 -4 -16 -10z"/>
<path d="M3740 5169 c0 -5 5 -7 10 -4 6 3 10 8 10 11 0 2 -4 4 -10 4 -5 0 -10
-5 -10 -11z"/>
<path d="M2840 5150 c0 -5 5 -10 11 -10 5 0 7 5 4 10 -3 6 -8 10 -11 10 -2 0
-4 -4 -4 -10z"/>
<path d="M3800 5120 c-13 -8 -12 -10 3 -10 9 0 17 5 17 10 0 12 -1 12 -20 0z"/>
<path d="M4074 5111 c-3 -3 -9 -6 -12 -6 -19 -1 -52 -28 -52 -41 0 -13 -7 -15
-34 -10 -38 7 -53 -11 -36 -45 8 -14 17 -18 35 -13 20 5 25 1 31 -20 3 -14 12
-26 20 -26 8 0 14 -8 14 -17 0 -15 2 -16 10 -3 8 12 10 12 11 -5 0 -11 3 -14
6 -7 2 6 13 12 23 12 36 0 71 45 74 95 3 33 -1 48 -10 52 -8 3 -12 9 -9 13 9
14 -58 34 -71 21z"/>
<path d="M3830 5100 c0 -5 5 -10 11 -10 5 0 7 5 4 10 -3 6 -8 10 -11 10 -2 0
-4 -4 -4 -10z"/>
<path d="M2985 5090 c-3 -5 1 -10 9 -10 9 0 16 5 16 10 0 6 -4 10 -9 10 -6 0
-13 -4 -16 -10z"/>
<path d="M2823 5051 c3 -12 1 -21 -5 -21 -5 0 -6 -4 -3 -10 3 -5 11 -10 16
-10 6 0 8 4 4 9 -3 6 1 14 10 18 12 7 11 11 -7 22 -19 12 -20 11 -15 -8z"/>
<path d="M3913 4938 c-3 -6 -2 -8 3 -5 6 3 16 1 24 -4 13 -8 13 -10 0 -19 -13
-8 -13 -10 -1 -10 11 0 9 -4 -5 -15 -16 -12 -17 -14 -3 -15 18 0 29 19 29 50
0 20 -36 34 -47 18z"/>
<path d="M2191 4924 c0 -11 3 -14 6 -6 3 7 2 16 -1 19 -3 4 -6 -2 -5 -13z"/>
<path d="M2805 4930 c3 -5 10 -10 16 -10 5 0 9 5 9 10 0 6 -7 10 -16 10 -8 0
-12 -4 -9 -10z"/>
<path d="M2725 4912 c-22 -9 -46 -21 -52 -25 -17 -11 -13 -56 4 -50 7 3 13 -2
13 -11 0 -9 7 -16 15 -16 8 0 15 7 15 15 0 18 41 29 75 21 34 -9 32 12 -2 24
-16 6 -37 14 -48 20 -19 9 -19 9 3 16 12 3 22 10 22 15 0 11 4 12 -45 -9z"/>
<path d="M2611 4894 c0 -11 3 -14 6 -6 3 7 2 16 -1 19 -3 4 -6 -2 -5 -13z"/>
<path d="M2609 4854 c-11 -14 -10 -15 11 -12 13 1 25 9 28 16 5 17 -23 15 -39
-4z"/>
<path d="M2790 4827 c0 -8 -9 -17 -20 -20 -23 -6 -27 -37 -5 -37 9 0 20 12 26
28 9 24 11 25 20 9 6 -9 14 -15 20 -12 5 3 6 -1 3 -9 -7 -18 21 -23 31 -6 3 6
1 10 -5 10 -6 0 -8 5 -4 12 4 6 3 8 -3 5 -6 -4 -22 3 -37 14 -20 16 -26 17
-26 6z"/>
<path d="M2846 4832 c-3 -5 1 -9 9 -9 8 0 12 4 9 9 -3 4 -7 8 -9 8 -2 0 -6 -4
-9 -8z"/>
<path d="M4145 4827 c-13 -7 -19 -19 -17 -31 4 -18 5 -18 24 5 11 13 17 18 13
12 -3 -7 -2 -13 3 -13 8 0 22 22 22 36 0 8 -25 3 -45 -9z"/>
<path d="M1480 4810 c0 -5 5 -10 10 -10 6 0 10 5 10 10 0 6 -4 10 -10 10 -5 0
-10 -4 -10 -10z"/>
<path d="M1850 4799 c0 -5 5 -7 10 -4 6 3 10 8 10 11 0 2 -4 4 -10 4 -5 0 -10
-5 -10 -11z"/>
<path d="M2221 4782 c-9 -16 -7 -21 9 -25 21 -5 26 8 11 32 -7 11 -11 10 -20
-7z"/>
<path d="M4105 4780 c3 -5 8 -10 11 -10 2 0 4 5 4 10 0 6 -5 10 -11 10 -5 0
-7 -4 -4 -10z"/>
<path d="M3937 4752 c-22 -25 -21 -37 3 -39 16 -1 20 4 20 28 0 34 -2 35 -23
11z"/>
<path d="M2212 4730 c0 -14 2 -19 5 -12 2 6 2 18 0 25 -3 6 -5 1 -5 -13z"/>
<path d="M2110 4719 c7 -11 14 -19 16 -16 7 7 -7 37 -17 37 -6 0 -5 -9 1 -21z"/>
<path d="M2730 4710 c0 -5 5 -10 11 -10 5 0 7 5 4 10 -3 6 -8 10 -11 10 -2 0
-4 -4 -4 -10z"/>
<path d="M2080 4690 c0 -24 20 -48 27 -32 2 6 9 10 14 6 5 -3 9 2 9 11 0 11
-5 15 -14 12 -7 -3 -19 0 -25 6 -8 8 -11 7 -11 -3z"/>
<path d="M2576 4673 c-6 -14 -5 -15 5 -6 7 7 10 15 7 18 -3 3 -9 -2 -12 -12z"/>
<path d="M2740 4670 c19 -13 30 -13 30 0 0 6 -10 10 -22 10 -19 0 -20 -2 -8
-10z"/>
<path d="M2835 4650 c-3 -5 -1 -10 4 -10 6 0 11 5 11 10 0 6 -2 10 -4 10 -3 0
-8 -4 -11 -10z"/>
<path d="M2650 4623 c-64 -16 -82 -29 -78 -57 2 -15 12 -22 31 -24 27 -3 28
-4 10 -17 -44 -34 49 -3 120 39 32 19 46 33 43 43 -3 8 -6 17 -6 19 0 13 -19
1 -22 -13 -3 -16 -5 -16 -24 3 -20 20 -24 20 -74 7z"/>
<path d="M1365 4530 c-3 -5 -1 -10 4 -10 6 0 11 5 11 10 0 6 -2 10 -4 10 -3 0
-8 -4 -11 -10z"/>
<path d="M4196 4532 c-2 -4 12 -7 32 -6 40 2 77 -16 104 -50 10 -11 18 -16 18
-9 0 6 -14 25 -31 42 -25 25 -39 31 -74 31 -24 0 -46 -3 -49 -8z"/>
<path d="M4711 4336 c2 -2 15 -9 29 -15 24 -11 24 -11 6 3 -16 13 -49 24 -35
12z"/>
<path d="M1565 4200 c-3 -5 -1 -10 4 -10 6 0 11 5 11 10 0 6 -2 10 -4 10 -3 0
-8 -4 -11 -10z"/>
<path d="M4657 4180 c-3 -11 -1 -20 4 -20 5 0 9 2 9 4 0 2 3 11 6 20 3 9 2 16
-4 16 -5 0 -12 -9 -15 -20z"/>
<path d="M4634 4128 c-4 -7 -4 -10 1 -6 5 5 15 -1 22 -12 12 -17 12 -24 3 -35
-7 -8 -19 -15 -27 -15 -8 0 -11 -4 -8 -10 3 -5 1 -10 -6 -10 -7 0 -10 -3 -6
-6 3 -3 19 3 35 15 16 11 32 17 36 14 4 -4 -4 -13 -16 -19 l-23 -13 25 -10
c22 -10 21 -11 -12 -6 -21 3 -38 2 -38 -2 0 -18 20 -37 41 -40 30 -5 49 -21
49 -44 0 -12 -5 -16 -15 -13 -10 4 -15 0 -15 -15 0 -11 -11 -28 -25 -37 -14
-9 -25 -25 -25 -35 0 -11 -4 -19 -10 -19 -5 0 -10 -7 -10 -16 0 -9 5 -12 12
-8 7 4 8 3 4 -5 -12 -19 3 -48 32 -60 27 -11 66 -11 78 1 3 4 12 4 20 1 10 -4
12 0 8 11 -3 9 -1 16 5 16 6 0 11 7 11 15 0 8 4 15 9 15 4 0 8 13 7 30 -1 23
-6 30 -21 31 -11 0 -14 3 -7 6 6 2 12 13 12 24 0 10 5 19 10 19 20 0 10 39
-15 58 -14 11 -25 24 -24 29 4 24 -4 33 -28 34 l-28 1 30 7 c17 4 40 4 51 0
24 -8 44 6 44 31 0 39 -52 54 -70 21 -13 -26 -13 -27 11 -28 14 -1 19 3 15 13
-4 10 1 14 17 13 12 0 16 -3 10 -6 -7 -2 -13 -9 -13 -14 0 -6 5 -7 12 -3 6 4
9 3 5 -2 -3 -5 -30 -10 -61 -12 -46 -2 -54 0 -50 13 4 8 -1 26 -10 40 -9 13
-14 30 -13 37 2 7 2 9 -1 5 -2 -4 -10 -3 -17 3 -10 8 -15 8 -21 -2z m106 -143
c0 -7 -7 -18 -15 -25 -10 -9 -15 -9 -15 -1 0 6 5 11 10 11 6 0 10 4 10 9 0 5
-8 7 -19 4 -10 -3 -21 -1 -24 4 -4 6 7 10 23 10 17 0 30 -6 30 -12z"/>
<path d="M1291 4113 c-21 -11 -40 -31 -52 -57 -19 -43 -27 -83 -10 -58 4 8 11
13 15 13 3 -1 7 -1 9 0 17 5 69 4 96 -4 37 -10 105 -72 96 -87 -3 -6 -2 -10 3
-10 12 0 10 -50 -2 -68 -4 -7 -6 -16 -3 -18 11 -12 57 102 57 142 0 25 5 44
13 47 8 4 7 6 -3 6 -8 1 -22 16 -30 33 -32 67 -121 96 -189 61z"/>
<path d="M4551 4078 c-1 -23 15 -31 36 -19 16 9 16 10 -4 11 -12 0 -24 6 -26
13 -3 7 -6 6 -6 -5z"/>
<path d="M1620 4059 c7 -11 14 -19 16 -16 7 7 -7 37 -17 37 -6 0 -5 -9 1 -21z"/>
<path d="M4317 4039 c7 -7 15 -10 18 -7 3 3 -2 9 -12 12 -14 6 -15 5 -6 -5z"/>
<path d="M4510 4032 c0 -14 35 -42 53 -42 9 0 17 4 17 10 0 5 -6 7 -13 4 -7
-2 -23 5 -35 16 -12 11 -22 17 -22 12z"/>
<path d="M4960 4030 c0 -6 7 -10 15 -10 8 0 15 2 15 4 0 2 -7 6 -15 10 -8 3
-15 1 -15 -4z"/>
<path d="M4360 4020 c20 -13 33 -13 25 0 -3 6 -14 10 -23 10 -15 0 -15 -2 -2
-10z"/>
<path d="M1550 3980 c0 -5 5 -10 10 -10 6 0 10 5 10 10 0 6 -4 10 -10 10 -5 0
-10 -4 -10 -10z"/>
<path d="M1620 3981 c0 -6 5 -13 10 -16 6 -3 10 1 10 9 0 9 -4 16 -10 16 -5 0
-10 -4 -10 -9z"/>
<path d="M4471 3980 c-9 -5 -5 -9 10 -13 28 -7 31 -6 14 10 -6 6 -18 8 -24 3z"/>
<path d="M4520 3981 c0 -6 5 -11 10 -11 23 0 7 -26 -53 -86 -60 -60 -77 -68
-104 -51 -19 12 -16 -23 3 -44 9 -10 23 -15 35 -12 16 5 18 8 7 14 -9 6 -5 8
12 7 14 -2 28 -7 32 -13 4 -6 25 -1 52 12 53 26 96 94 75 119 -6 7 -14 12 -18
10 -3 -2 -7 7 -7 20 -2 23 -1 24 11 7 7 -10 17 -15 20 -11 10 10 -23 41 -35
33 -6 -4 -17 -1 -25 5 -11 9 -15 9 -15 1z m1 -111 c6 0 7 -4 4 -10 -3 -5 -13
-10 -21 -10 -8 0 -13 4 -10 9 4 5 3 11 -1 14 -5 2 -2 2 5 0 8 -1 18 -3 23 -3z
m46 -6 c-3 -3 -12 -4 -19 -1 -8 3 -5 6 6 6 11 1 17 -2 13 -5z m-20 -30 c-3 -3
-12 -4 -19 -1 -8 3 -5 6 6 6 11 1 17 -2 13 -5z m-147 -30 c0 -8 -19 -13 -24
-6 -3 5 1 9 9 9 8 0 15 -2 15 -3z"/>
<path d="M1690 3965 c0 -8 11 -17 25 -21 14 -3 25 -10 25 -15 0 -5 4 -9 10 -9
6 0 5 10 -2 25 -6 13 -14 22 -19 20 -4 -3 -10 -1 -14 5 -9 15 -25 12 -25 -5z"/>
<path d="M4363 3960 c-1 -11 2 -20 5 -20 4 0 8 9 9 20 1 11 -2 20 -5 20 -4 0
-8 -9 -9 -20z"/>
<path d="M1550 3916 c0 -17 38 -41 48 -31 9 9 -13 40 -32 43 -9 2 -16 -3 -16
-12z"/>
<path d="M4383 3913 c4 -5 -3 -19 -13 -31 -20 -21 -20 -21 -1 -32 12 -6 22 -6
25 -1 4 5 1 11 -5 13 -9 3 -9 9 0 25 8 17 8 24 -1 29 -6 4 -8 3 -5 -3z"/>
<path d="M3360 3900 c0 -5 7 -10 15 -10 8 0 15 5 15 10 0 6 -7 10 -15 10 -8 0
-15 -4 -15 -10z"/>
<path d="M1644 3877 c3 -10 6 -23 6 -28 0 -5 5 -9 10 -9 14 0 12 13 -6 36 -14
17 -15 17 -10 1z"/>
<path d="M1595 3850 c3 -5 8 -10 11 -10 2 0 4 5 4 10 0 6 -5 10 -11 10 -5 0
-7 -4 -4 -10z"/>
<path d="M1730 3850 c0 -5 4 -10 9 -10 6 0 13 5 16 10 3 6 -1 10 -9 10 -9 0
-16 -4 -16 -10z"/>
<path d="M4292 3853 c-13 -5 -7 -23 9 -23 6 0 8 4 5 9 -4 5 0 12 6 14 7 3 9 5
3 5 -5 0 -16 -2 -23 -5z"/>
<path d="M1394 3784 c-18 -14 -18 -15 4 -4 12 6 22 13 22 15 0 8 -5 6 -26 -11z"/>
<path d="M3516 3775 c4 -8 10 -12 15 -9 14 8 10 24 -6 24 -9 0 -12 -6 -9 -15z"/>
<path d="M4810 3770 c0 -5 7 -10 15 -10 8 0 15 5 15 10 0 6 -7 10 -15 10 -8 0
-15 -4 -15 -10z"/>
<path d="M1265 3760 c-8 -14 3 -30 21 -30 8 0 14 9 14 20 0 21 -24 28 -35 10z"/>
<path d="M1294 3715 c-4 -9 -2 -21 4 -27 15 -15 44 -1 40 19 -4 23 -36 29 -44
8z"/>
<path d="M1224 3584 c-13 -11 -15 -17 -6 -20 6 -3 12 -12 12 -20 0 -9 -4 -12
-10 -9 -6 4 -10 -12 -10 -42 0 -26 -3 -58 -6 -70 -5 -17 -2 -23 9 -23 8 0 14
8 13 17 0 10 5 18 12 18 6 0 11 5 10 10 -2 6 -6 9 -10 8 -5 -2 -8 5 -8 14 0
13 3 14 12 5 17 -17 31 -15 24 4 -4 11 -2 15 8 11 19 -7 40 18 32 38 -4 12 0
14 19 9 29 -7 32 6 9 41 -19 30 -78 35 -110 9z"/>
<path d="M4644 3565 c-10 -8 -14 -15 -7 -15 6 0 15 5 19 11 4 8 9 7 15 -2 4
-7 11 -11 14 -8 3 4 -1 11 -8 17 -10 9 -18 8 -33 -3z"/>
<path d="M4385 3560 c4 -6 11 -8 16 -5 14 9 11 15 -7 15 -8 0 -12 -5 -9 -10z"/>
<path d="M4886 3558 c3 -4 11 -5 19 -1 21 7 19 12 -4 10 -11 0 -18 -5 -15 -9z"/>
<path d="M1062 3538 c-30 -30 3 -77 40 -57 30 16 16 69 -17 69 -6 0 -16 -5
-23 -12z"/>
<path d="M4580 3521 c-6 -12 -8 -22 -5 -22 13 -3 22 -7 49 -18 16 -6 39 -10
50 -8 16 3 15 5 -6 6 -15 0 -30 6 -33 11 -4 6 -10 8 -14 6 -4 -3 -7 4 -7 16 1
29 -20 34 -34 9z"/>
<path d="M4830 3536 c0 -2 7 -6 15 -10 8 -3 15 -1 15 4 0 6 -7 10 -15 10 -8 0
-15 -2 -15 -4z"/>
<path d="M1881 3514 c0 -11 3 -14 6 -6 3 7 2 16 -1 19 -3 4 -6 -2 -5 -13z"/>
<path d="M4320 3509 c0 -5 5 -7 10 -4 6 3 10 8 10 11 0 2 -4 4 -10 4 -5 0 -10
-5 -10 -11z"/>
<path d="M4380 3496 c0 -8 -6 -17 -12 -19 -7 -3 -3 -6 10 -6 22 -1 31 22 12
34 -5 3 -10 0 -10 -9z"/>
<path d="M4475 3488 c5 -26 11 -32 20 -19 3 6 0 11 -7 11 -11 0 -10 2 0 9 11
7 11 9 -1 14 -12 4 -15 0 -12 -15z"/>
<path d="M4510 3506 c0 -2 7 -7 16 -10 8 -3 12 -2 9 4 -6 10 -25 14 -25 6z"/>
<path d="M4090 3485 c0 -8 2 -15 4 -15 2 0 6 7 10 15 3 8 1 15 -4 15 -6 0 -10
-7 -10 -15z"/>
<path d="M4315 3470 c-3 -5 1 -10 9 -10 9 0 16 5 16 10 0 6 -4 10 -9 10 -6 0
-13 -4 -16 -10z"/>
<path d="M1720 3460 c-9 -6 -10 -10 -3 -10 6 0 15 5 18 10 8 12 4 12 -15 0z"/>
<path d="M1089 3433 c-13 -16 -12 -17 3 -5 10 8 19 9 22 3 3 -5 0 -12 -6 -14
-9 -4 -10 -6 -1 -6 19 -1 24 16 9 28 -10 9 -17 7 -27 -6z"/>
<path d="M4127 3412 c4 -10 9 -10 22 0 9 7 17 13 19 14 2 1 -8 1 -21 0 -15 0
-23 -6 -20 -14z"/>
<path d="M4296 3414 c-5 -12 2 -24 15 -24 3 0 9 8 11 18 6 21 -18 26 -26 6z"/>
<path d="M4720 3396 c0 -9 5 -16 10 -16 6 0 10 4 10 9 0 6 -4 13 -10 16 -5 3
-10 -1 -10 -9z"/>
<path d="M1163 3368 c-15 -20 -25 -38 -20 -38 3 0 12 11 21 25 17 26 16 35 -1
13z"/>
<path d="M4720 3345 c0 -14 4 -25 9 -25 4 0 6 11 3 25 -2 14 -6 25 -8 25 -2 0
-4 -11 -4 -25z"/>
<path d="M4840 3360 c-9 -6 -10 -10 -3 -10 6 0 15 5 18 10 8 12 4 12 -15 0z"/>
<path d="M2070 3350 c-12 -8 -12 -10 -1 -10 11 0 11 -3 0 -17 -12 -16 -12 -17
2 -6 9 7 19 10 22 6 4 -3 7 -1 7 5 0 7 -5 12 -11 12 -5 0 -7 5 -4 10 8 12 4
12 -15 0z"/>
<path d="M1077 3344 c-13 -13 -7 -32 12 -37 13 -3 18 1 17 16 -1 21 -17 32
-29 21z"/>
<path d="M4875 3330 c-3 -5 -1 -10 4 -10 6 0 11 5 11 10 0 6 -2 10 -4 10 -3 0
-8 -4 -11 -10z"/>
<path d="M2114 3311 c4 -6 2 -11 -3 -11 -6 0 -11 -7 -11 -16 0 -8 -4 -12 -10
-9 -5 3 -10 2 -10 -4 0 -5 5 -13 10 -16 6 -3 10 -1 10 4 0 6 10 11 23 12 21 0
21 1 2 9 -18 8 -18 9 -2 9 21 1 18 22 -3 29 -7 3 -10 0 -6 -7z"/>
<path d="M1027 3283 c-24 -23 12 -75 37 -54 16 13 29 54 15 45 -5 -3 -9 0 -9
5 0 12 -33 15 -43 4z"/>
<path d="M1120 3251 c0 -5 7 -12 16 -15 14 -5 15 -4 4 9 -14 17 -20 19 -20 6z"/>
<path d="M2138 3253 c7 -3 16 -2 19 1 4 3 -2 6 -13 5 -11 0 -14 -3 -6 -6z"/>
<path d="M1658 3203 c7 -3 16 -2 19 1 4 3 -2 6 -13 5 -11 0 -14 -3 -6 -6z"/>
<path d="M3753 3186 c0 -8 6 -12 14 -9 7 3 10 9 7 14 -8 14 -21 11 -21 -5z"/>
<path d="M1545 3180 c-3 -5 1 -10 9 -10 9 0 16 5 16 10 0 6 -4 10 -9 10 -6 0
-13 -4 -16 -10z"/>
<path d="M1870 3156 c0 -14 29 -31 38 -22 2 3 2 12 -1 21 -8 19 -37 20 -37 1z"/>
<path d="M1325 3125 c-29 -14 -28 -15 17 -19 6 -1 12 7 14 17 1 9 2 17 1 16
-1 0 -15 -7 -32 -14z"/>
<path d="M1225 3121 c-3 -5 -1 -12 5 -16 5 -3 10 1 10 9 0 18 -6 21 -15 7z"/>
<path d="M1265 3120 c-16 -7 -17 -9 -3 -9 9 -1 20 4 23 9 7 11 7 11 -20 0z"/>
<path d="M4970 3029 c0 -5 5 -7 10 -4 6 3 10 8 10 11 0 2 -4 4 -10 4 -5 0 -10
-5 -10 -11z"/>
<path d="M4802 3008 c7 -19 38 -22 38 -4 0 10 -9 16 -21 16 -12 0 -19 -5 -17
-12z"/>
<path d="M1066 2943 c-11 -11 -6 -23 9 -23 8 0 15 4 15 9 0 13 -16 22 -24 14z"/>
<path d="M4855 2896 c-20 -15 -13 -56 11 -56 8 0 14 -6 14 -12 1 -17 20 17 25
42 5 27 -26 44 -50 26z"/>
<path d="M1200 2820 c0 -5 5 -10 11 -10 5 0 7 5 4 10 -3 6 -8 10 -11 10 -2 0
-4 -4 -4 -10z"/>
<path d="M1280 2730 c0 -5 5 -10 11 -10 5 0 7 5 4 10 -3 6 -8 10 -11 10 -2 0
-4 -4 -4 -10z"/>
<path d="M1245 2710 c3 -5 10 -10 16 -10 5 0 9 5 9 10 0 6 -7 10 -16 10 -8 0
-12 -4 -9 -10z"/>
<path d="M4894 2440 c0 -69 1 -97 3 -62 2 34 2 90 0 125 -2 34 -3 6 -3 -63z"/>
<path d="M2890 2465 c0 -8 7 -15 15 -15 8 0 15 7 15 15 0 8 -7 15 -15 15 -8 0
-15 -7 -15 -15z"/>
<path d="M1065 2460 c-3 -5 1 -10 9 -10 8 0 18 5 21 10 3 6 -1 10 -9 10 -8 0
-18 -4 -21 -10z"/>
<path d="M1475 2430 c-3 -5 -1 -18 4 -27 9 -16 10 -14 11 10 0 28 -5 34 -15
17z"/>
<path d="M2840 2405 c7 -8 17 -12 22 -9 6 4 5 10 -3 15 -22 14 -33 10 -19 -6z"/>
<path d="M4470 2410 c0 -5 7 -10 16 -10 8 0 12 5 9 10 -3 6 -10 10 -16 10 -5
0 -9 -4 -9 -10z"/>
<path d="M1550 2345 c-8 -9 -8 -15 -2 -15 12 0 26 19 19 26 -2 2 -10 -2 -17
-11z"/>
<path d="M4413 2340 c3 -11 0 -20 -6 -20 -6 0 -8 -3 -5 -6 10 -9 48 16 48 31
0 9 -9 15 -21 15 -16 0 -20 -5 -16 -20z"/>
<path d="M4231 2328 c-1 -20 14 -24 25 -6 4 6 3 8 -4 4 -5 -3 -13 0 -15 6 -3
8 -6 6 -6 -4z"/>
<path d="M2895 2310 c27 -12 35 -12 35 0 0 6 -12 10 -27 9 -25 0 -26 -1 -8 -9z"/>
<path d="M4391 2283 c7 -10 15 -20 16 -22 2 -2 3 5 3 17 0 14 -6 22 -16 22
-14 0 -15 -3 -3 -17z"/>
<path d="M4490 2257 c-51 -26 -60 -103 -15 -133 30 -19 65 -26 65 -12 0 6 3 9
6 5 12 -12 36 24 41 62 4 32 1 42 -21 64 -30 30 -40 32 -76 14z"/>
<path d="M1720 2239 c0 -6 9 -8 20 -4 11 4 20 2 20 -4 0 -6 5 -11 11 -11 8 0
8 5 -1 15 -14 17 -50 20 -50 4z"/>
<path d="M4600 2199 c0 -5 5 -7 10 -4 6 3 10 8 10 11 0 2 -4 4 -10 4 -5 0 -10
-5 -10 -11z"/>
<path d="M1773 2174 c-8 -20 8 -48 30 -52 22 -5 42 35 26 54 -16 19 -48 18
-56 -2z"/>
<path d="M3140 2130 c23 -20 30 -24 30 -16 0 9 -32 36 -42 36 -6 0 -1 -9 12
-20z"/>
<path d="M1685 2099 c-11 -16 -1 -19 13 -3 7 8 8 14 3 14 -5 0 -13 -5 -16 -11z"/>
<path d="M2857 2103 c-12 -11 -8 -40 7 -52 28 -23 68 17 45 45 -12 15 -41 19
-52 7z"/>
<path d="M3205 2070 c4 -6 11 -8 16 -5 14 9 11 15 -7 15 -8 0 -12 -5 -9 -10z"/>
<path d="M3440 2059 c0 -5 5 -7 10 -4 6 3 10 8 10 11 0 2 -4 4 -10 4 -5 0 -10
-5 -10 -11z"/>
<path d="M4360 2050 c0 -5 7 -10 16 -10 8 0 12 5 9 10 -3 6 -10 10 -16 10 -5
0 -9 -4 -9 -10z"/>
<path d="M3268 1979 c-1 -34 0 -63 5 -66 4 -2 7 25 7 61 0 36 -2 66 -4 66 -2
0 -6 -27 -8 -61z"/>
<path d="M3449 2012 c-3 -20 -2 -29 4 -23 5 5 7 19 5 32 -3 20 -5 19 -9 -9z"/>
<path d="M2845 2020 c-3 -5 1 -10 9 -10 8 0 18 5 21 10 3 6 -1 10 -9 10 -8 0
-18 -4 -21 -10z"/>
<path d="M2305 2000 c3 -5 8 -10 11 -10 2 0 4 5 4 10 0 6 -5 10 -11 10 -5 0
-7 -4 -4 -10z"/>
<path d="M2577 2004 c-9 -10 4 -34 19 -34 8 0 14 9 14 20 0 19 -19 27 -33 14z"/>
<path d="M3590 1999 c0 -5 5 -7 10 -4 6 3 10 8 10 11 0 2 -4 4 -10 4 -5 0 -10
-5 -10 -11z"/>
<path d="M1913 1966 c-6 -7 -7 -19 -3 -26 6 -9 11 -7 19 8 18 34 8 45 -16 18z"/>
<path d="M2240 1960 c0 -5 5 -10 10 -10 6 0 10 5 10 10 0 6 -4 10 -10 10 -5 0
-10 -4 -10 -10z"/>
<path d="M3447 1963 c-4 -3 -7 -11 -7 -17 0 -6 5 -5 12 2 6 6 9 14 7 17 -3 3
-9 2 -12 -2z"/>
<path d="M3671 1914 c0 -11 3 -14 6 -6 3 7 2 16 -1 19 -3 4 -6 -2 -5 -13z"/>
<path d="M4155 1910 c-3 -5 -1 -10 4 -10 6 0 11 5 11 10 0 6 -2 10 -4 10 -3 0
-8 -4 -11 -10z"/>
<path d="M1627 1893 c-3 -5 -2 -15 3 -22 10 -17 43 -6 38 12 -6 15 -34 22 -41
10z"/>
<path d="M2300 1885 c0 -9 5 -15 11 -13 6 2 11 8 11 13 0 5 -5 11 -11 13 -6 2
-11 -4 -11 -13z"/>
<path d="M3453 1863 c-10 -3 -13 -41 -13 -140 0 -75 2 -134 5 -132 2 3 5 61 6
129 1 102 4 127 18 137 16 12 7 16 -16 6z"/>
<path d="M3840 1850 c0 -5 5 -10 10 -10 6 0 10 5 10 10 0 6 -4 10 -10 10 -5 0
-10 -4 -10 -10z"/>
<path d="M4032 1790 c0 -19 2 -27 5 -17 2 9 2 25 0 35 -3 9 -5 1 -5 -18z"/>
<path d="M3162 825 c0 -16 2 -22 5 -12 2 9 2 23 0 30 -3 6 -5 -1 -5 -18z"/>
<path d="M2881 804 c0 -11 3 -14 6 -6 3 7 2 16 -1 19 -3 4 -6 -2 -5 -13z"/>
<path d="M2952 800 c0 -14 2 -19 5 -12 2 6 2 18 0 25 -3 6 -5 1 -5 -13z"/>
</g>
</svg>
